G04 #@! TF.GenerationSoftware,KiCad,Pcbnew,5.0.0*
G04 #@! TF.CreationDate,2018-09-29T21:29:33+03:00*
G04 #@! TF.ProjectId,PCF8574AN,50434638353734414E2E6B696361645F,rev?*
G04 #@! TF.SameCoordinates,Original*
G04 #@! TF.FileFunction,Copper,L2,Bot,Signal*
G04 #@! TF.FilePolarity,Positive*
%FSLAX46Y46*%
G04 Gerber Fmt 4.6, Leading zero omitted, Abs format (unit mm)*
G04 Created by KiCad (PCBNEW 5.0.0) date Sat Sep 29 21:29:33 2018*
%MOMM*%
%LPD*%
G01*
G04 APERTURE LIST*
%ADD10C,0.100000*%
%ADD11C,0.150000*%
%ADD12C,0.300000*%
%ADD13C,0.400000*%
G04 #@! TA.AperFunction,ComponentPad*
%ADD14O,1.700000X1.700000*%
G04 #@! TD*
G04 #@! TA.AperFunction,ComponentPad*
%ADD15R,1.700000X1.700000*%
G04 #@! TD*
G04 #@! TA.AperFunction,Conductor*
%ADD16C,0.100000*%
G04 #@! TD*
G04 #@! TA.AperFunction,SMDPad,CuDef*
%ADD17C,1.250000*%
G04 #@! TD*
G04 #@! TA.AperFunction,ComponentPad*
%ADD18R,2.400000X1.600000*%
G04 #@! TD*
G04 #@! TA.AperFunction,ComponentPad*
%ADD19O,2.400000X1.600000*%
G04 #@! TD*
G04 #@! TA.AperFunction,ViaPad*
%ADD20C,0.600000*%
G04 #@! TD*
G04 #@! TA.AperFunction,Conductor*
%ADD21C,2.200000*%
G04 #@! TD*
G04 #@! TA.AperFunction,Conductor*
%ADD22C,2.000000*%
G04 #@! TD*
G04 #@! TA.AperFunction,Conductor*
%ADD23C,0.254000*%
G04 #@! TD*
G04 APERTURE END LIST*
D10*
D11*
X177002200Y-166007200D02*
X177002200Y-198007200D01*
X285002200Y-198007200D01*
X285002200Y-166007200D01*
X177002200Y-166007200D01*
D10*
D11*
X10000000Y-10000000D02*
X10000000Y-200007200D01*
X287002200Y-200007200D01*
X287002200Y-10000000D01*
X10000000Y-10000000D01*
D10*
D11*
X12000000Y-12000000D02*
X12000000Y-198007200D01*
X285002200Y-198007200D01*
X285002200Y-12000000D01*
X12000000Y-12000000D01*
D10*
D11*
X60000000Y-12000000D02*
X60000000Y-10000000D01*
D10*
D11*
X110000000Y-12000000D02*
X110000000Y-10000000D01*
D10*
D11*
X160000000Y-12000000D02*
X160000000Y-10000000D01*
D10*
D11*
X210000000Y-12000000D02*
X210000000Y-10000000D01*
D10*
D11*
X260000000Y-12000000D02*
X260000000Y-10000000D01*
D10*
D11*
X36065476Y-11588095D02*
X35322619Y-11588095D01*
X35694047Y-11588095D02*
X35694047Y-10288095D01*
X35570238Y-10473809D01*
X35446428Y-10597619D01*
X35322619Y-10659523D01*
D10*
D11*
X85322619Y-10411904D02*
X85384523Y-10350000D01*
X85508333Y-10288095D01*
X85817857Y-10288095D01*
X85941666Y-10350000D01*
X86003571Y-10411904D01*
X86065476Y-10535714D01*
X86065476Y-10659523D01*
X86003571Y-10845238D01*
X85260714Y-11588095D01*
X86065476Y-11588095D01*
D10*
D11*
X135260714Y-10288095D02*
X136065476Y-10288095D01*
X135632142Y-10783333D01*
X135817857Y-10783333D01*
X135941666Y-10845238D01*
X136003571Y-10907142D01*
X136065476Y-11030952D01*
X136065476Y-11340476D01*
X136003571Y-11464285D01*
X135941666Y-11526190D01*
X135817857Y-11588095D01*
X135446428Y-11588095D01*
X135322619Y-11526190D01*
X135260714Y-11464285D01*
D10*
D11*
X185941666Y-10721428D02*
X185941666Y-11588095D01*
X185632142Y-10226190D02*
X185322619Y-11154761D01*
X186127380Y-11154761D01*
D10*
D11*
X236003571Y-10288095D02*
X235384523Y-10288095D01*
X235322619Y-10907142D01*
X235384523Y-10845238D01*
X235508333Y-10783333D01*
X235817857Y-10783333D01*
X235941666Y-10845238D01*
X236003571Y-10907142D01*
X236065476Y-11030952D01*
X236065476Y-11340476D01*
X236003571Y-11464285D01*
X235941666Y-11526190D01*
X235817857Y-11588095D01*
X235508333Y-11588095D01*
X235384523Y-11526190D01*
X235322619Y-11464285D01*
D10*
D11*
X285941666Y-10288095D02*
X285694047Y-10288095D01*
X285570238Y-10350000D01*
X285508333Y-10411904D01*
X285384523Y-10597619D01*
X285322619Y-10845238D01*
X285322619Y-11340476D01*
X285384523Y-11464285D01*
X285446428Y-11526190D01*
X285570238Y-11588095D01*
X285817857Y-11588095D01*
X285941666Y-11526190D01*
X286003571Y-11464285D01*
X286065476Y-11340476D01*
X286065476Y-11030952D01*
X286003571Y-10907142D01*
X285941666Y-10845238D01*
X285817857Y-10783333D01*
X285570238Y-10783333D01*
X285446428Y-10845238D01*
X285384523Y-10907142D01*
X285322619Y-11030952D01*
D10*
D11*
X60000000Y-198007200D02*
X60000000Y-200007200D01*
D10*
D11*
X110000000Y-198007200D02*
X110000000Y-200007200D01*
D10*
D11*
X160000000Y-198007200D02*
X160000000Y-200007200D01*
D10*
D11*
X210000000Y-198007200D02*
X210000000Y-200007200D01*
D10*
D11*
X260000000Y-198007200D02*
X260000000Y-200007200D01*
D10*
D11*
X36065476Y-199595295D02*
X35322619Y-199595295D01*
X35694047Y-199595295D02*
X35694047Y-198295295D01*
X35570238Y-198481009D01*
X35446428Y-198604819D01*
X35322619Y-198666723D01*
D10*
D11*
X85322619Y-198419104D02*
X85384523Y-198357200D01*
X85508333Y-198295295D01*
X85817857Y-198295295D01*
X85941666Y-198357200D01*
X86003571Y-198419104D01*
X86065476Y-198542914D01*
X86065476Y-198666723D01*
X86003571Y-198852438D01*
X85260714Y-199595295D01*
X86065476Y-199595295D01*
D10*
D11*
X135260714Y-198295295D02*
X136065476Y-198295295D01*
X135632142Y-198790533D01*
X135817857Y-198790533D01*
X135941666Y-198852438D01*
X136003571Y-198914342D01*
X136065476Y-199038152D01*
X136065476Y-199347676D01*
X136003571Y-199471485D01*
X135941666Y-199533390D01*
X135817857Y-199595295D01*
X135446428Y-199595295D01*
X135322619Y-199533390D01*
X135260714Y-199471485D01*
D10*
D11*
X185941666Y-198728628D02*
X185941666Y-199595295D01*
X185632142Y-198233390D02*
X185322619Y-199161961D01*
X186127380Y-199161961D01*
D10*
D11*
X236003571Y-198295295D02*
X235384523Y-198295295D01*
X235322619Y-198914342D01*
X235384523Y-198852438D01*
X235508333Y-198790533D01*
X235817857Y-198790533D01*
X235941666Y-198852438D01*
X236003571Y-198914342D01*
X236065476Y-199038152D01*
X236065476Y-199347676D01*
X236003571Y-199471485D01*
X235941666Y-199533390D01*
X235817857Y-199595295D01*
X235508333Y-199595295D01*
X235384523Y-199533390D01*
X235322619Y-199471485D01*
D10*
D11*
X285941666Y-198295295D02*
X285694047Y-198295295D01*
X285570238Y-198357200D01*
X285508333Y-198419104D01*
X285384523Y-198604819D01*
X285322619Y-198852438D01*
X285322619Y-199347676D01*
X285384523Y-199471485D01*
X285446428Y-199533390D01*
X285570238Y-199595295D01*
X285817857Y-199595295D01*
X285941666Y-199533390D01*
X286003571Y-199471485D01*
X286065476Y-199347676D01*
X286065476Y-199038152D01*
X286003571Y-198914342D01*
X285941666Y-198852438D01*
X285817857Y-198790533D01*
X285570238Y-198790533D01*
X285446428Y-198852438D01*
X285384523Y-198914342D01*
X285322619Y-199038152D01*
D10*
D11*
X10000000Y-60000000D02*
X12000000Y-60000000D01*
D10*
D11*
X10000000Y-110000000D02*
X12000000Y-110000000D01*
D10*
D11*
X10000000Y-160000000D02*
X12000000Y-160000000D01*
D10*
D11*
X10690476Y-35216666D02*
X11309523Y-35216666D01*
X10566666Y-35588095D02*
X11000000Y-34288095D01*
X11433333Y-35588095D01*
D10*
D11*
X11092857Y-84907142D02*
X11278571Y-84969047D01*
X11340476Y-85030952D01*
X11402380Y-85154761D01*
X11402380Y-85340476D01*
X11340476Y-85464285D01*
X11278571Y-85526190D01*
X11154761Y-85588095D01*
X10659523Y-85588095D01*
X10659523Y-84288095D01*
X11092857Y-84288095D01*
X11216666Y-84350000D01*
X11278571Y-84411904D01*
X11340476Y-84535714D01*
X11340476Y-84659523D01*
X11278571Y-84783333D01*
X11216666Y-84845238D01*
X11092857Y-84907142D01*
X10659523Y-84907142D01*
D10*
D11*
X11402380Y-135464285D02*
X11340476Y-135526190D01*
X11154761Y-135588095D01*
X11030952Y-135588095D01*
X10845238Y-135526190D01*
X10721428Y-135402380D01*
X10659523Y-135278571D01*
X10597619Y-135030952D01*
X10597619Y-134845238D01*
X10659523Y-134597619D01*
X10721428Y-134473809D01*
X10845238Y-134350000D01*
X11030952Y-134288095D01*
X11154761Y-134288095D01*
X11340476Y-134350000D01*
X11402380Y-134411904D01*
D10*
D11*
X10659523Y-185588095D02*
X10659523Y-184288095D01*
X10969047Y-184288095D01*
X11154761Y-184350000D01*
X11278571Y-184473809D01*
X11340476Y-184597619D01*
X11402380Y-184845238D01*
X11402380Y-185030952D01*
X11340476Y-185278571D01*
X11278571Y-185402380D01*
X11154761Y-185526190D01*
X10969047Y-185588095D01*
X10659523Y-185588095D01*
D10*
D11*
X287002200Y-60000000D02*
X285002200Y-60000000D01*
D10*
D11*
X287002200Y-110000000D02*
X285002200Y-110000000D01*
D10*
D11*
X287002200Y-160000000D02*
X285002200Y-160000000D01*
D10*
D11*
X285692676Y-35216666D02*
X286311723Y-35216666D01*
X285568866Y-35588095D02*
X286002200Y-34288095D01*
X286435533Y-35588095D01*
D10*
D11*
X286095057Y-84907142D02*
X286280771Y-84969047D01*
X286342676Y-85030952D01*
X286404580Y-85154761D01*
X286404580Y-85340476D01*
X286342676Y-85464285D01*
X286280771Y-85526190D01*
X286156961Y-85588095D01*
X285661723Y-85588095D01*
X285661723Y-84288095D01*
X286095057Y-84288095D01*
X286218866Y-84350000D01*
X286280771Y-84411904D01*
X286342676Y-84535714D01*
X286342676Y-84659523D01*
X286280771Y-84783333D01*
X286218866Y-84845238D01*
X286095057Y-84907142D01*
X285661723Y-84907142D01*
D10*
D11*
X286404580Y-135464285D02*
X286342676Y-135526190D01*
X286156961Y-135588095D01*
X286033152Y-135588095D01*
X285847438Y-135526190D01*
X285723628Y-135402380D01*
X285661723Y-135278571D01*
X285599819Y-135030952D01*
X285599819Y-134845238D01*
X285661723Y-134597619D01*
X285723628Y-134473809D01*
X285847438Y-134350000D01*
X286033152Y-134288095D01*
X286156961Y-134288095D01*
X286342676Y-134350000D01*
X286404580Y-134411904D01*
D10*
D11*
X285661723Y-185588095D02*
X285661723Y-184288095D01*
X285971247Y-184288095D01*
X286156961Y-184350000D01*
X286280771Y-184473809D01*
X286342676Y-184597619D01*
X286404580Y-184845238D01*
X286404580Y-185030952D01*
X286342676Y-185278571D01*
X286280771Y-185402380D01*
X286156961Y-185526190D01*
X285971247Y-185588095D01*
X285661723Y-185588095D01*
D10*
D11*
X200434342Y-193785771D02*
X200434342Y-192285771D01*
X200791485Y-192285771D01*
X201005771Y-192357200D01*
X201148628Y-192500057D01*
X201220057Y-192642914D01*
X201291485Y-192928628D01*
X201291485Y-193142914D01*
X201220057Y-193428628D01*
X201148628Y-193571485D01*
X201005771Y-193714342D01*
X200791485Y-193785771D01*
X200434342Y-193785771D01*
X202577200Y-193785771D02*
X202577200Y-193000057D01*
X202505771Y-192857200D01*
X202362914Y-192785771D01*
X202077200Y-192785771D01*
X201934342Y-192857200D01*
X202577200Y-193714342D02*
X202434342Y-193785771D01*
X202077200Y-193785771D01*
X201934342Y-193714342D01*
X201862914Y-193571485D01*
X201862914Y-193428628D01*
X201934342Y-193285771D01*
X202077200Y-193214342D01*
X202434342Y-193214342D01*
X202577200Y-193142914D01*
X203077200Y-192785771D02*
X203648628Y-192785771D01*
X203291485Y-192285771D02*
X203291485Y-193571485D01*
X203362914Y-193714342D01*
X203505771Y-193785771D01*
X203648628Y-193785771D01*
X204720057Y-193714342D02*
X204577200Y-193785771D01*
X204291485Y-193785771D01*
X204148628Y-193714342D01*
X204077200Y-193571485D01*
X204077200Y-193000057D01*
X204148628Y-192857200D01*
X204291485Y-192785771D01*
X204577200Y-192785771D01*
X204720057Y-192857200D01*
X204791485Y-193000057D01*
X204791485Y-193142914D01*
X204077200Y-193285771D01*
X205434342Y-193642914D02*
X205505771Y-193714342D01*
X205434342Y-193785771D01*
X205362914Y-193714342D01*
X205434342Y-193642914D01*
X205434342Y-193785771D01*
X205434342Y-192857200D02*
X205505771Y-192928628D01*
X205434342Y-193000057D01*
X205362914Y-192928628D01*
X205434342Y-192857200D01*
X205434342Y-193000057D01*
D10*
D11*
X177002200Y-194507200D02*
X285002200Y-194507200D01*
D10*
D11*
X178434342Y-196585771D02*
X178434342Y-195085771D01*
X179291485Y-196585771D02*
X178648628Y-195728628D01*
X179291485Y-195085771D02*
X178434342Y-195942914D01*
X179934342Y-196585771D02*
X179934342Y-195585771D01*
X179934342Y-195085771D02*
X179862914Y-195157200D01*
X179934342Y-195228628D01*
X180005771Y-195157200D01*
X179934342Y-195085771D01*
X179934342Y-195228628D01*
X181505771Y-196442914D02*
X181434342Y-196514342D01*
X181220057Y-196585771D01*
X181077200Y-196585771D01*
X180862914Y-196514342D01*
X180720057Y-196371485D01*
X180648628Y-196228628D01*
X180577200Y-195942914D01*
X180577200Y-195728628D01*
X180648628Y-195442914D01*
X180720057Y-195300057D01*
X180862914Y-195157200D01*
X181077200Y-195085771D01*
X181220057Y-195085771D01*
X181434342Y-195157200D01*
X181505771Y-195228628D01*
X182791485Y-196585771D02*
X182791485Y-195800057D01*
X182720057Y-195657200D01*
X182577200Y-195585771D01*
X182291485Y-195585771D01*
X182148628Y-195657200D01*
X182791485Y-196514342D02*
X182648628Y-196585771D01*
X182291485Y-196585771D01*
X182148628Y-196514342D01*
X182077200Y-196371485D01*
X182077200Y-196228628D01*
X182148628Y-196085771D01*
X182291485Y-196014342D01*
X182648628Y-196014342D01*
X182791485Y-195942914D01*
X184148628Y-196585771D02*
X184148628Y-195085771D01*
X184148628Y-196514342D02*
X184005771Y-196585771D01*
X183720057Y-196585771D01*
X183577200Y-196514342D01*
X183505771Y-196442914D01*
X183434342Y-196300057D01*
X183434342Y-195871485D01*
X183505771Y-195728628D01*
X183577200Y-195657200D01*
X183720057Y-195585771D01*
X184005771Y-195585771D01*
X184148628Y-195657200D01*
X186005771Y-195800057D02*
X186505771Y-195800057D01*
X186720057Y-196585771D02*
X186005771Y-196585771D01*
X186005771Y-195085771D01*
X186720057Y-195085771D01*
X187362914Y-196442914D02*
X187434342Y-196514342D01*
X187362914Y-196585771D01*
X187291485Y-196514342D01*
X187362914Y-196442914D01*
X187362914Y-196585771D01*
X188077200Y-196585771D02*
X188077200Y-195085771D01*
X188434342Y-195085771D01*
X188648628Y-195157200D01*
X188791485Y-195300057D01*
X188862914Y-195442914D01*
X188934342Y-195728628D01*
X188934342Y-195942914D01*
X188862914Y-196228628D01*
X188791485Y-196371485D01*
X188648628Y-196514342D01*
X188434342Y-196585771D01*
X188077200Y-196585771D01*
X189577200Y-196442914D02*
X189648628Y-196514342D01*
X189577200Y-196585771D01*
X189505771Y-196514342D01*
X189577200Y-196442914D01*
X189577200Y-196585771D01*
X190220057Y-196157200D02*
X190934342Y-196157200D01*
X190077200Y-196585771D02*
X190577200Y-195085771D01*
X191077200Y-196585771D01*
X191577200Y-196442914D02*
X191648628Y-196514342D01*
X191577200Y-196585771D01*
X191505771Y-196514342D01*
X191577200Y-196442914D01*
X191577200Y-196585771D01*
X194577200Y-196585771D02*
X194577200Y-195085771D01*
X194720057Y-196014342D02*
X195148628Y-196585771D01*
X195148628Y-195585771D02*
X194577200Y-196157200D01*
X195791485Y-196585771D02*
X195791485Y-195585771D01*
X195791485Y-195085771D02*
X195720057Y-195157200D01*
X195791485Y-195228628D01*
X195862914Y-195157200D01*
X195791485Y-195085771D01*
X195791485Y-195228628D01*
X197148628Y-196514342D02*
X197005771Y-196585771D01*
X196720057Y-196585771D01*
X196577200Y-196514342D01*
X196505771Y-196442914D01*
X196434342Y-196300057D01*
X196434342Y-195871485D01*
X196505771Y-195728628D01*
X196577200Y-195657200D01*
X196720057Y-195585771D01*
X197005771Y-195585771D01*
X197148628Y-195657200D01*
X198434342Y-196585771D02*
X198434342Y-195800057D01*
X198362914Y-195657200D01*
X198220057Y-195585771D01*
X197934342Y-195585771D01*
X197791485Y-195657200D01*
X198434342Y-196514342D02*
X198291485Y-196585771D01*
X197934342Y-196585771D01*
X197791485Y-196514342D01*
X197720057Y-196371485D01*
X197720057Y-196228628D01*
X197791485Y-196085771D01*
X197934342Y-196014342D01*
X198291485Y-196014342D01*
X198434342Y-195942914D01*
X199791485Y-196585771D02*
X199791485Y-195085771D01*
X199791485Y-196514342D02*
X199648628Y-196585771D01*
X199362914Y-196585771D01*
X199220057Y-196514342D01*
X199148628Y-196442914D01*
X199077200Y-196300057D01*
X199077200Y-195871485D01*
X199148628Y-195728628D01*
X199220057Y-195657200D01*
X199362914Y-195585771D01*
X199648628Y-195585771D01*
X199791485Y-195657200D01*
X202362914Y-195085771D02*
X201648628Y-195085771D01*
X201577200Y-195800057D01*
X201648628Y-195728628D01*
X201791485Y-195657200D01*
X202148628Y-195657200D01*
X202291485Y-195728628D01*
X202362914Y-195800057D01*
X202434342Y-195942914D01*
X202434342Y-196300057D01*
X202362914Y-196442914D01*
X202291485Y-196514342D01*
X202148628Y-196585771D01*
X201791485Y-196585771D01*
X201648628Y-196514342D01*
X201577200Y-196442914D01*
X203077200Y-196442914D02*
X203148628Y-196514342D01*
X203077200Y-196585771D01*
X203005771Y-196514342D01*
X203077200Y-196442914D01*
X203077200Y-196585771D01*
X204077200Y-195085771D02*
X204220057Y-195085771D01*
X204362914Y-195157200D01*
X204434342Y-195228628D01*
X204505771Y-195371485D01*
X204577200Y-195657200D01*
X204577200Y-196014342D01*
X204505771Y-196300057D01*
X204434342Y-196442914D01*
X204362914Y-196514342D01*
X204220057Y-196585771D01*
X204077200Y-196585771D01*
X203934342Y-196514342D01*
X203862914Y-196442914D01*
X203791485Y-196300057D01*
X203720057Y-196014342D01*
X203720057Y-195657200D01*
X203791485Y-195371485D01*
X203862914Y-195228628D01*
X203934342Y-195157200D01*
X204077200Y-195085771D01*
X205220057Y-196442914D02*
X205291485Y-196514342D01*
X205220057Y-196585771D01*
X205148628Y-196514342D01*
X205220057Y-196442914D01*
X205220057Y-196585771D01*
X206220057Y-195085771D02*
X206362914Y-195085771D01*
X206505771Y-195157200D01*
X206577200Y-195228628D01*
X206648628Y-195371485D01*
X206720057Y-195657200D01*
X206720057Y-196014342D01*
X206648628Y-196300057D01*
X206577200Y-196442914D01*
X206505771Y-196514342D01*
X206362914Y-196585771D01*
X206220057Y-196585771D01*
X206077200Y-196514342D01*
X206005771Y-196442914D01*
X205934342Y-196300057D01*
X205862914Y-196014342D01*
X205862914Y-195657200D01*
X205934342Y-195371485D01*
X206005771Y-195228628D01*
X206077200Y-195157200D01*
X206220057Y-195085771D01*
D10*
D11*
X177002200Y-191507200D02*
X285002200Y-191507200D01*
D10*
D12*
X264411485Y-193785771D02*
X263911485Y-193071485D01*
X263554342Y-193785771D02*
X263554342Y-192285771D01*
X264125771Y-192285771D01*
X264268628Y-192357200D01*
X264340057Y-192428628D01*
X264411485Y-192571485D01*
X264411485Y-192785771D01*
X264340057Y-192928628D01*
X264268628Y-193000057D01*
X264125771Y-193071485D01*
X263554342Y-193071485D01*
X265625771Y-193714342D02*
X265482914Y-193785771D01*
X265197200Y-193785771D01*
X265054342Y-193714342D01*
X264982914Y-193571485D01*
X264982914Y-193000057D01*
X265054342Y-192857200D01*
X265197200Y-192785771D01*
X265482914Y-192785771D01*
X265625771Y-192857200D01*
X265697200Y-193000057D01*
X265697200Y-193142914D01*
X264982914Y-193285771D01*
X266197200Y-192785771D02*
X266554342Y-193785771D01*
X266911485Y-192785771D01*
X267482914Y-193642914D02*
X267554342Y-193714342D01*
X267482914Y-193785771D01*
X267411485Y-193714342D01*
X267482914Y-193642914D01*
X267482914Y-193785771D01*
X267482914Y-192857200D02*
X267554342Y-192928628D01*
X267482914Y-193000057D01*
X267411485Y-192928628D01*
X267482914Y-192857200D01*
X267482914Y-193000057D01*
D10*
D11*
X178362914Y-193714342D02*
X178577200Y-193785771D01*
X178934342Y-193785771D01*
X179077200Y-193714342D01*
X179148628Y-193642914D01*
X179220057Y-193500057D01*
X179220057Y-193357200D01*
X179148628Y-193214342D01*
X179077200Y-193142914D01*
X178934342Y-193071485D01*
X178648628Y-193000057D01*
X178505771Y-192928628D01*
X178434342Y-192857200D01*
X178362914Y-192714342D01*
X178362914Y-192571485D01*
X178434342Y-192428628D01*
X178505771Y-192357200D01*
X178648628Y-192285771D01*
X179005771Y-192285771D01*
X179220057Y-192357200D01*
X179862914Y-193785771D02*
X179862914Y-192785771D01*
X179862914Y-192285771D02*
X179791485Y-192357200D01*
X179862914Y-192428628D01*
X179934342Y-192357200D01*
X179862914Y-192285771D01*
X179862914Y-192428628D01*
X180434342Y-192785771D02*
X181220057Y-192785771D01*
X180434342Y-193785771D01*
X181220057Y-193785771D01*
X182362914Y-193714342D02*
X182220057Y-193785771D01*
X181934342Y-193785771D01*
X181791485Y-193714342D01*
X181720057Y-193571485D01*
X181720057Y-193000057D01*
X181791485Y-192857200D01*
X181934342Y-192785771D01*
X182220057Y-192785771D01*
X182362914Y-192857200D01*
X182434342Y-193000057D01*
X182434342Y-193142914D01*
X181720057Y-193285771D01*
X183077200Y-193642914D02*
X183148628Y-193714342D01*
X183077200Y-193785771D01*
X183005771Y-193714342D01*
X183077200Y-193642914D01*
X183077200Y-193785771D01*
X183077200Y-192857200D02*
X183148628Y-192928628D01*
X183077200Y-193000057D01*
X183005771Y-192928628D01*
X183077200Y-192857200D01*
X183077200Y-193000057D01*
X184862914Y-193357200D02*
X185577200Y-193357200D01*
X184720057Y-193785771D02*
X185220057Y-192285771D01*
X185720057Y-193785771D01*
X186862914Y-192785771D02*
X186862914Y-193785771D01*
X186505771Y-192214342D02*
X186148628Y-193285771D01*
X187077200Y-193285771D01*
D10*
D11*
X263434342Y-196585771D02*
X263434342Y-195085771D01*
X264791485Y-196585771D02*
X264791485Y-195085771D01*
X264791485Y-196514342D02*
X264648628Y-196585771D01*
X264362914Y-196585771D01*
X264220057Y-196514342D01*
X264148628Y-196442914D01*
X264077200Y-196300057D01*
X264077200Y-195871485D01*
X264148628Y-195728628D01*
X264220057Y-195657200D01*
X264362914Y-195585771D01*
X264648628Y-195585771D01*
X264791485Y-195657200D01*
X265505771Y-196442914D02*
X265577200Y-196514342D01*
X265505771Y-196585771D01*
X265434342Y-196514342D01*
X265505771Y-196442914D01*
X265505771Y-196585771D01*
X265505771Y-195657200D02*
X265577200Y-195728628D01*
X265505771Y-195800057D01*
X265434342Y-195728628D01*
X265505771Y-195657200D01*
X265505771Y-195800057D01*
X268148628Y-196585771D02*
X267291485Y-196585771D01*
X267720057Y-196585771D02*
X267720057Y-195085771D01*
X267577200Y-195300057D01*
X267434342Y-195442914D01*
X267291485Y-195514342D01*
X269862914Y-195014342D02*
X268577200Y-196942914D01*
X271148628Y-196585771D02*
X270291485Y-196585771D01*
X270720057Y-196585771D02*
X270720057Y-195085771D01*
X270577200Y-195300057D01*
X270434342Y-195442914D01*
X270291485Y-195514342D01*
D10*
D11*
X177002200Y-187507200D02*
X285002200Y-187507200D01*
D10*
D13*
X178714580Y-188211961D02*
X179857438Y-188211961D01*
X179036009Y-190211961D02*
X179286009Y-188211961D01*
X180274104Y-190211961D02*
X180440771Y-188878628D01*
X180524104Y-188211961D02*
X180416961Y-188307200D01*
X180500295Y-188402438D01*
X180607438Y-188307200D01*
X180524104Y-188211961D01*
X180500295Y-188402438D01*
X181107438Y-188878628D02*
X181869342Y-188878628D01*
X181476485Y-188211961D02*
X181262200Y-189926247D01*
X181333628Y-190116723D01*
X181512200Y-190211961D01*
X181702676Y-190211961D01*
X182655057Y-190211961D02*
X182476485Y-190116723D01*
X182405057Y-189926247D01*
X182619342Y-188211961D01*
X184190771Y-190116723D02*
X183988390Y-190211961D01*
X183607438Y-190211961D01*
X183428866Y-190116723D01*
X183357438Y-189926247D01*
X183452676Y-189164342D01*
X183571723Y-188973866D01*
X183774104Y-188878628D01*
X184155057Y-188878628D01*
X184333628Y-188973866D01*
X184405057Y-189164342D01*
X184381247Y-189354819D01*
X183405057Y-189545295D01*
X185155057Y-190021485D02*
X185238390Y-190116723D01*
X185131247Y-190211961D01*
X185047914Y-190116723D01*
X185155057Y-190021485D01*
X185131247Y-190211961D01*
X185286009Y-188973866D02*
X185369342Y-189069104D01*
X185262200Y-189164342D01*
X185178866Y-189069104D01*
X185286009Y-188973866D01*
X185262200Y-189164342D01*
X187607438Y-190211961D02*
X187857438Y-188211961D01*
X188619342Y-188211961D01*
X188797914Y-188307200D01*
X188881247Y-188402438D01*
X188952676Y-188592914D01*
X188916961Y-188878628D01*
X188797914Y-189069104D01*
X188690771Y-189164342D01*
X188488390Y-189259580D01*
X187726485Y-189259580D01*
X190774104Y-190021485D02*
X190666961Y-190116723D01*
X190369342Y-190211961D01*
X190178866Y-190211961D01*
X189905057Y-190116723D01*
X189738390Y-189926247D01*
X189666961Y-189735771D01*
X189619342Y-189354819D01*
X189655057Y-189069104D01*
X189797914Y-188688152D01*
X189916961Y-188497676D01*
X190131247Y-188307200D01*
X190428866Y-188211961D01*
X190619342Y-188211961D01*
X190893152Y-188307200D01*
X190976485Y-188402438D01*
X192405057Y-189164342D02*
X191738390Y-189164342D01*
X191607438Y-190211961D02*
X191857438Y-188211961D01*
X192809819Y-188211961D01*
X193750295Y-189069104D02*
X193571723Y-188973866D01*
X193488390Y-188878628D01*
X193416961Y-188688152D01*
X193428866Y-188592914D01*
X193547914Y-188402438D01*
X193655057Y-188307200D01*
X193857438Y-188211961D01*
X194238390Y-188211961D01*
X194416961Y-188307200D01*
X194500295Y-188402438D01*
X194571723Y-188592914D01*
X194559819Y-188688152D01*
X194440771Y-188878628D01*
X194333628Y-188973866D01*
X194131247Y-189069104D01*
X193750295Y-189069104D01*
X193547914Y-189164342D01*
X193440771Y-189259580D01*
X193321723Y-189450057D01*
X193274104Y-189831009D01*
X193345533Y-190021485D01*
X193428866Y-190116723D01*
X193607438Y-190211961D01*
X193988390Y-190211961D01*
X194190771Y-190116723D01*
X194297914Y-190021485D01*
X194416961Y-189831009D01*
X194464580Y-189450057D01*
X194393152Y-189259580D01*
X194309819Y-189164342D01*
X194131247Y-189069104D01*
X196428866Y-188211961D02*
X195476485Y-188211961D01*
X195262200Y-189164342D01*
X195369342Y-189069104D01*
X195571723Y-188973866D01*
X196047914Y-188973866D01*
X196226485Y-189069104D01*
X196309819Y-189164342D01*
X196381247Y-189354819D01*
X196321723Y-189831009D01*
X196202676Y-190021485D01*
X196095533Y-190116723D01*
X195893152Y-190211961D01*
X195416961Y-190211961D01*
X195238390Y-190116723D01*
X195155057Y-190021485D01*
X197190771Y-188211961D02*
X198524104Y-188211961D01*
X197416961Y-190211961D01*
X200059819Y-188878628D02*
X199893152Y-190211961D01*
X199678866Y-188116723D02*
X199024104Y-189545295D01*
X200262200Y-189545295D01*
X200916961Y-189640533D02*
X201869342Y-189640533D01*
X200655057Y-190211961D02*
X201571723Y-188211961D01*
X201988390Y-190211961D01*
X202655057Y-190211961D02*
X202905057Y-188211961D01*
X203797914Y-190211961D01*
X204047914Y-188211961D01*
X206274104Y-190211961D02*
X206524104Y-188211961D01*
X207012200Y-189640533D01*
X207857438Y-188211961D01*
X207607438Y-190211961D01*
X208536009Y-189640533D02*
X209488390Y-189640533D01*
X208274104Y-190211961D02*
X209190771Y-188211961D01*
X209607438Y-190211961D01*
X210274104Y-190211961D02*
X210524104Y-188211961D01*
X211226485Y-190211961D02*
X211476485Y-188211961D01*
X212369342Y-190211961D01*
X212619342Y-188211961D01*
X215643152Y-189164342D02*
X215916961Y-189259580D01*
X216000295Y-189354819D01*
X216071723Y-189545295D01*
X216036009Y-189831009D01*
X215916961Y-190021485D01*
X215809819Y-190116723D01*
X215607438Y-190211961D01*
X214845533Y-190211961D01*
X215095533Y-188211961D01*
X215762200Y-188211961D01*
X215940771Y-188307200D01*
X216024104Y-188402438D01*
X216095533Y-188592914D01*
X216071723Y-188783390D01*
X215952676Y-188973866D01*
X215845533Y-189069104D01*
X215643152Y-189164342D01*
X214976485Y-189164342D01*
X217476485Y-188211961D02*
X217857438Y-188211961D01*
X218036009Y-188307200D01*
X218202676Y-188497676D01*
X218250295Y-188878628D01*
X218166961Y-189545295D01*
X218024104Y-189926247D01*
X217809819Y-190116723D01*
X217607438Y-190211961D01*
X217226485Y-190211961D01*
X217047914Y-190116723D01*
X216881247Y-189926247D01*
X216833628Y-189545295D01*
X216916961Y-188878628D01*
X217059819Y-188497676D01*
X217274104Y-188307200D01*
X217476485Y-188211961D01*
X218916961Y-189640533D02*
X219869342Y-189640533D01*
X218655057Y-190211961D02*
X219571723Y-188211961D01*
X219988390Y-190211961D01*
X221797914Y-190211961D02*
X221250295Y-189259580D01*
X220655057Y-190211961D02*
X220905057Y-188211961D01*
X221666961Y-188211961D01*
X221845533Y-188307200D01*
X221928866Y-188402438D01*
X222000295Y-188592914D01*
X221964580Y-188878628D01*
X221845533Y-189069104D01*
X221738390Y-189164342D01*
X221536009Y-189259580D01*
X220774104Y-189259580D01*
X222655057Y-190211961D02*
X222905057Y-188211961D01*
X223381247Y-188211961D01*
X223655057Y-188307200D01*
X223821723Y-188497676D01*
X223893152Y-188688152D01*
X223940771Y-189069104D01*
X223905057Y-189354819D01*
X223762200Y-189735771D01*
X223643152Y-189926247D01*
X223428866Y-190116723D01*
X223131247Y-190211961D01*
X222655057Y-190211961D01*
D10*
D11*
X178934342Y-185600057D02*
X178434342Y-185600057D01*
X178434342Y-186385771D02*
X178434342Y-184885771D01*
X179148628Y-184885771D01*
X179720057Y-186385771D02*
X179720057Y-185385771D01*
X179720057Y-184885771D02*
X179648628Y-184957200D01*
X179720057Y-185028628D01*
X179791485Y-184957200D01*
X179720057Y-184885771D01*
X179720057Y-185028628D01*
X180648628Y-186385771D02*
X180505771Y-186314342D01*
X180434342Y-186171485D01*
X180434342Y-184885771D01*
X181791485Y-186314342D02*
X181648628Y-186385771D01*
X181362914Y-186385771D01*
X181220057Y-186314342D01*
X181148628Y-186171485D01*
X181148628Y-185600057D01*
X181220057Y-185457200D01*
X181362914Y-185385771D01*
X181648628Y-185385771D01*
X181791485Y-185457200D01*
X181862914Y-185600057D01*
X181862914Y-185742914D01*
X181148628Y-185885771D01*
X182505771Y-186242914D02*
X182577200Y-186314342D01*
X182505771Y-186385771D01*
X182434342Y-186314342D01*
X182505771Y-186242914D01*
X182505771Y-186385771D01*
X182505771Y-185457200D02*
X182577200Y-185528628D01*
X182505771Y-185600057D01*
X182434342Y-185528628D01*
X182505771Y-185457200D01*
X182505771Y-185600057D01*
X184362914Y-186385771D02*
X184362914Y-184885771D01*
X184934342Y-184885771D01*
X185077200Y-184957200D01*
X185148628Y-185028628D01*
X185220057Y-185171485D01*
X185220057Y-185385771D01*
X185148628Y-185528628D01*
X185077200Y-185600057D01*
X184934342Y-185671485D01*
X184362914Y-185671485D01*
X186720057Y-186242914D02*
X186648628Y-186314342D01*
X186434342Y-186385771D01*
X186291485Y-186385771D01*
X186077200Y-186314342D01*
X185934342Y-186171485D01*
X185862914Y-186028628D01*
X185791485Y-185742914D01*
X185791485Y-185528628D01*
X185862914Y-185242914D01*
X185934342Y-185100057D01*
X186077200Y-184957200D01*
X186291485Y-184885771D01*
X186434342Y-184885771D01*
X186648628Y-184957200D01*
X186720057Y-185028628D01*
X187862914Y-185600057D02*
X187362914Y-185600057D01*
X187362914Y-186385771D02*
X187362914Y-184885771D01*
X188077200Y-184885771D01*
X188862914Y-185528628D02*
X188720057Y-185457200D01*
X188648628Y-185385771D01*
X188577200Y-185242914D01*
X188577200Y-185171485D01*
X188648628Y-185028628D01*
X188720057Y-184957200D01*
X188862914Y-184885771D01*
X189148628Y-184885771D01*
X189291485Y-184957200D01*
X189362914Y-185028628D01*
X189434342Y-185171485D01*
X189434342Y-185242914D01*
X189362914Y-185385771D01*
X189291485Y-185457200D01*
X189148628Y-185528628D01*
X188862914Y-185528628D01*
X188720057Y-185600057D01*
X188648628Y-185671485D01*
X188577200Y-185814342D01*
X188577200Y-186100057D01*
X188648628Y-186242914D01*
X188720057Y-186314342D01*
X188862914Y-186385771D01*
X189148628Y-186385771D01*
X189291485Y-186314342D01*
X189362914Y-186242914D01*
X189434342Y-186100057D01*
X189434342Y-185814342D01*
X189362914Y-185671485D01*
X189291485Y-185600057D01*
X189148628Y-185528628D01*
X190791485Y-184885771D02*
X190077200Y-184885771D01*
X190005771Y-185600057D01*
X190077200Y-185528628D01*
X190220057Y-185457200D01*
X190577200Y-185457200D01*
X190720057Y-185528628D01*
X190791485Y-185600057D01*
X190862914Y-185742914D01*
X190862914Y-186100057D01*
X190791485Y-186242914D01*
X190720057Y-186314342D01*
X190577200Y-186385771D01*
X190220057Y-186385771D01*
X190077200Y-186314342D01*
X190005771Y-186242914D01*
X191362914Y-184885771D02*
X192362914Y-184885771D01*
X191720057Y-186385771D01*
X193577200Y-185385771D02*
X193577200Y-186385771D01*
X193220057Y-184814342D02*
X192862914Y-185885771D01*
X193791485Y-185885771D01*
X194291485Y-185957200D02*
X195005771Y-185957200D01*
X194148628Y-186385771D02*
X194648628Y-184885771D01*
X195148628Y-186385771D01*
X195648628Y-186385771D02*
X195648628Y-184885771D01*
X196505771Y-186385771D01*
X196505771Y-184885771D01*
X197220057Y-186242914D02*
X197291485Y-186314342D01*
X197220057Y-186385771D01*
X197148628Y-186314342D01*
X197220057Y-186242914D01*
X197220057Y-186385771D01*
X197934342Y-186385771D02*
X197934342Y-184885771D01*
X198077200Y-185814342D02*
X198505771Y-186385771D01*
X198505771Y-185385771D02*
X197934342Y-185957200D01*
X199148628Y-186385771D02*
X199148628Y-185385771D01*
X199148628Y-184885771D02*
X199077200Y-184957200D01*
X199148628Y-185028628D01*
X199220057Y-184957200D01*
X199148628Y-184885771D01*
X199148628Y-185028628D01*
X200505771Y-186314342D02*
X200362914Y-186385771D01*
X200077200Y-186385771D01*
X199934342Y-186314342D01*
X199862914Y-186242914D01*
X199791485Y-186100057D01*
X199791485Y-185671485D01*
X199862914Y-185528628D01*
X199934342Y-185457200D01*
X200077200Y-185385771D01*
X200362914Y-185385771D01*
X200505771Y-185457200D01*
X201791485Y-186385771D02*
X201791485Y-185600057D01*
X201720057Y-185457200D01*
X201577200Y-185385771D01*
X201291485Y-185385771D01*
X201148628Y-185457200D01*
X201791485Y-186314342D02*
X201648628Y-186385771D01*
X201291485Y-186385771D01*
X201148628Y-186314342D01*
X201077200Y-186171485D01*
X201077200Y-186028628D01*
X201148628Y-185885771D01*
X201291485Y-185814342D01*
X201648628Y-185814342D01*
X201791485Y-185742914D01*
X203148628Y-186385771D02*
X203148628Y-184885771D01*
X203148628Y-186314342D02*
X203005771Y-186385771D01*
X202720057Y-186385771D01*
X202577200Y-186314342D01*
X202505771Y-186242914D01*
X202434342Y-186100057D01*
X202434342Y-185671485D01*
X202505771Y-185528628D01*
X202577200Y-185457200D01*
X202720057Y-185385771D01*
X203005771Y-185385771D01*
X203148628Y-185457200D01*
X203505771Y-186528628D02*
X204648628Y-186528628D01*
X205005771Y-185385771D02*
X205005771Y-186885771D01*
X205005771Y-185457200D02*
X205148628Y-185385771D01*
X205434342Y-185385771D01*
X205577200Y-185457200D01*
X205648628Y-185528628D01*
X205720057Y-185671485D01*
X205720057Y-186100057D01*
X205648628Y-186242914D01*
X205577200Y-186314342D01*
X205434342Y-186385771D01*
X205148628Y-186385771D01*
X205005771Y-186314342D01*
X207005771Y-186314342D02*
X206862914Y-186385771D01*
X206577200Y-186385771D01*
X206434342Y-186314342D01*
X206362914Y-186242914D01*
X206291485Y-186100057D01*
X206291485Y-185671485D01*
X206362914Y-185528628D01*
X206434342Y-185457200D01*
X206577200Y-185385771D01*
X206862914Y-185385771D01*
X207005771Y-185457200D01*
X207648628Y-186385771D02*
X207648628Y-184885771D01*
X207648628Y-185457200D02*
X207791485Y-185385771D01*
X208077200Y-185385771D01*
X208220057Y-185457200D01*
X208291485Y-185528628D01*
X208362914Y-185671485D01*
X208362914Y-186100057D01*
X208291485Y-186242914D01*
X208220057Y-186314342D01*
X208077200Y-186385771D01*
X207791485Y-186385771D01*
X207648628Y-186314342D01*
D10*
D11*
X177002200Y-181507200D02*
X285002200Y-181507200D01*
D10*
D11*
X178362914Y-183614342D02*
X178577200Y-183685771D01*
X178934342Y-183685771D01*
X179077200Y-183614342D01*
X179148628Y-183542914D01*
X179220057Y-183400057D01*
X179220057Y-183257200D01*
X179148628Y-183114342D01*
X179077200Y-183042914D01*
X178934342Y-182971485D01*
X178648628Y-182900057D01*
X178505771Y-182828628D01*
X178434342Y-182757200D01*
X178362914Y-182614342D01*
X178362914Y-182471485D01*
X178434342Y-182328628D01*
X178505771Y-182257200D01*
X178648628Y-182185771D01*
X179005771Y-182185771D01*
X179220057Y-182257200D01*
X179862914Y-183685771D02*
X179862914Y-182185771D01*
X180505771Y-183685771D02*
X180505771Y-182900057D01*
X180434342Y-182757200D01*
X180291485Y-182685771D01*
X180077200Y-182685771D01*
X179934342Y-182757200D01*
X179862914Y-182828628D01*
X181791485Y-183614342D02*
X181648628Y-183685771D01*
X181362914Y-183685771D01*
X181220057Y-183614342D01*
X181148628Y-183471485D01*
X181148628Y-182900057D01*
X181220057Y-182757200D01*
X181362914Y-182685771D01*
X181648628Y-182685771D01*
X181791485Y-182757200D01*
X181862914Y-182900057D01*
X181862914Y-183042914D01*
X181148628Y-183185771D01*
X183077200Y-183614342D02*
X182934342Y-183685771D01*
X182648628Y-183685771D01*
X182505771Y-183614342D01*
X182434342Y-183471485D01*
X182434342Y-182900057D01*
X182505771Y-182757200D01*
X182648628Y-182685771D01*
X182934342Y-182685771D01*
X183077200Y-182757200D01*
X183148628Y-182900057D01*
X183148628Y-183042914D01*
X182434342Y-183185771D01*
X183577200Y-182685771D02*
X184148628Y-182685771D01*
X183791485Y-182185771D02*
X183791485Y-183471485D01*
X183862914Y-183614342D01*
X184005771Y-183685771D01*
X184148628Y-183685771D01*
X184648628Y-183542914D02*
X184720057Y-183614342D01*
X184648628Y-183685771D01*
X184577200Y-183614342D01*
X184648628Y-183542914D01*
X184648628Y-183685771D01*
X184648628Y-182757200D02*
X184720057Y-182828628D01*
X184648628Y-182900057D01*
X184577200Y-182828628D01*
X184648628Y-182757200D01*
X184648628Y-182900057D01*
D10*
D12*
X178554342Y-180685771D02*
X178554342Y-179185771D01*
X179411485Y-180685771D01*
X179411485Y-179185771D01*
X180411485Y-179185771D02*
X180697200Y-179185771D01*
X180840057Y-179257200D01*
X180982914Y-179400057D01*
X181054342Y-179685771D01*
X181054342Y-180185771D01*
X180982914Y-180471485D01*
X180840057Y-180614342D01*
X180697200Y-180685771D01*
X180411485Y-180685771D01*
X180268628Y-180614342D01*
X180125771Y-180471485D01*
X180054342Y-180185771D01*
X180054342Y-179685771D01*
X180125771Y-179400057D01*
X180268628Y-179257200D01*
X180411485Y-179185771D01*
X181697200Y-180685771D02*
X181697200Y-179185771D01*
X182554342Y-180685771D01*
X182554342Y-179185771D01*
X183268628Y-180114342D02*
X184411485Y-180114342D01*
X185982914Y-180542914D02*
X185911485Y-180614342D01*
X185697200Y-180685771D01*
X185554342Y-180685771D01*
X185340057Y-180614342D01*
X185197200Y-180471485D01*
X185125771Y-180328628D01*
X185054342Y-180042914D01*
X185054342Y-179828628D01*
X185125771Y-179542914D01*
X185197200Y-179400057D01*
X185340057Y-179257200D01*
X185554342Y-179185771D01*
X185697200Y-179185771D01*
X185911485Y-179257200D01*
X185982914Y-179328628D01*
X186911485Y-179185771D02*
X187197200Y-179185771D01*
X187340057Y-179257200D01*
X187482914Y-179400057D01*
X187554342Y-179685771D01*
X187554342Y-180185771D01*
X187482914Y-180471485D01*
X187340057Y-180614342D01*
X187197200Y-180685771D01*
X186911485Y-180685771D01*
X186768628Y-180614342D01*
X186625771Y-180471485D01*
X186554342Y-180185771D01*
X186554342Y-179685771D01*
X186625771Y-179400057D01*
X186768628Y-179257200D01*
X186911485Y-179185771D01*
X188197200Y-180685771D02*
X188197200Y-179185771D01*
X188697200Y-180257200D01*
X189197200Y-179185771D01*
X189197200Y-180685771D01*
X189911485Y-180685771D02*
X189911485Y-179185771D01*
X190411485Y-180257200D01*
X190911485Y-179185771D01*
X190911485Y-180685771D01*
X191625771Y-179900057D02*
X192125771Y-179900057D01*
X192340057Y-180685771D02*
X191625771Y-180685771D01*
X191625771Y-179185771D01*
X192340057Y-179185771D01*
X193840057Y-180685771D02*
X193340057Y-179971485D01*
X192982914Y-180685771D02*
X192982914Y-179185771D01*
X193554342Y-179185771D01*
X193697200Y-179257200D01*
X193768628Y-179328628D01*
X193840057Y-179471485D01*
X193840057Y-179685771D01*
X193768628Y-179828628D01*
X193697200Y-179900057D01*
X193554342Y-179971485D01*
X192982914Y-179971485D01*
X195340057Y-180542914D02*
X195268628Y-180614342D01*
X195054342Y-180685771D01*
X194911485Y-180685771D01*
X194697200Y-180614342D01*
X194554342Y-180471485D01*
X194482914Y-180328628D01*
X194411485Y-180042914D01*
X194411485Y-179828628D01*
X194482914Y-179542914D01*
X194554342Y-179400057D01*
X194697200Y-179257200D01*
X194911485Y-179185771D01*
X195054342Y-179185771D01*
X195268628Y-179257200D01*
X195340057Y-179328628D01*
X195982914Y-180685771D02*
X195982914Y-179185771D01*
X196625771Y-180257200D02*
X197340057Y-180257200D01*
X196482914Y-180685771D02*
X196982914Y-179185771D01*
X197482914Y-180685771D01*
X198697200Y-180685771D02*
X197982914Y-180685771D01*
X197982914Y-179185771D01*
D10*
D11*
X178362914Y-174257200D02*
X179077200Y-174257200D01*
X178220057Y-174685771D02*
X178720057Y-173185771D01*
X179220057Y-174685771D01*
X179720057Y-173685771D02*
X179720057Y-174685771D01*
X179720057Y-173828628D02*
X179791485Y-173757200D01*
X179934342Y-173685771D01*
X180148628Y-173685771D01*
X180291485Y-173757200D01*
X180362914Y-173900057D01*
X180362914Y-174685771D01*
X181720057Y-174685771D02*
X181720057Y-173185771D01*
X181720057Y-174614342D02*
X181577200Y-174685771D01*
X181291485Y-174685771D01*
X181148628Y-174614342D01*
X181077200Y-174542914D01*
X181005771Y-174400057D01*
X181005771Y-173971485D01*
X181077200Y-173828628D01*
X181148628Y-173757200D01*
X181291485Y-173685771D01*
X181577200Y-173685771D01*
X181720057Y-173757200D01*
X182434342Y-174685771D02*
X182434342Y-173685771D01*
X182434342Y-173971485D02*
X182505771Y-173828628D01*
X182577200Y-173757200D01*
X182720057Y-173685771D01*
X182862914Y-173685771D01*
X183934342Y-174614342D02*
X183791485Y-174685771D01*
X183505771Y-174685771D01*
X183362914Y-174614342D01*
X183291485Y-174471485D01*
X183291485Y-173900057D01*
X183362914Y-173757200D01*
X183505771Y-173685771D01*
X183791485Y-173685771D01*
X183934342Y-173757200D01*
X184005771Y-173900057D01*
X184005771Y-174042914D01*
X183291485Y-174185771D01*
X184505771Y-173685771D02*
X184862914Y-174685771D01*
X185220057Y-173685771D02*
X184862914Y-174685771D01*
X184720057Y-175042914D01*
X184648628Y-175114342D01*
X184505771Y-175185771D01*
X186934342Y-174685771D02*
X186934342Y-173185771D01*
X187505771Y-173685771D02*
X187862914Y-174685771D01*
X188220057Y-173685771D01*
X189434342Y-174685771D02*
X189434342Y-173900057D01*
X189362914Y-173757200D01*
X189220057Y-173685771D01*
X188934342Y-173685771D01*
X188791485Y-173757200D01*
X189434342Y-174614342D02*
X189291485Y-174685771D01*
X188934342Y-174685771D01*
X188791485Y-174614342D01*
X188720057Y-174471485D01*
X188720057Y-174328628D01*
X188791485Y-174185771D01*
X188934342Y-174114342D01*
X189291485Y-174114342D01*
X189434342Y-174042914D01*
X190148628Y-173685771D02*
X190148628Y-174685771D01*
X190148628Y-173828628D02*
X190220057Y-173757200D01*
X190362914Y-173685771D01*
X190577200Y-173685771D01*
X190720057Y-173757200D01*
X190791485Y-173900057D01*
X190791485Y-174685771D01*
X191720057Y-174685771D02*
X191577200Y-174614342D01*
X191505771Y-174542914D01*
X191434342Y-174400057D01*
X191434342Y-173971485D01*
X191505771Y-173828628D01*
X191577200Y-173757200D01*
X191720057Y-173685771D01*
X191934342Y-173685771D01*
X192077200Y-173757200D01*
X192148628Y-173828628D01*
X192220057Y-173971485D01*
X192220057Y-174400057D01*
X192148628Y-174542914D01*
X192077200Y-174614342D01*
X191934342Y-174685771D01*
X191720057Y-174685771D01*
X192720057Y-173685771D02*
X193077200Y-174685771D01*
X193434342Y-173685771D01*
D10*
D11*
X178362914Y-171257200D02*
X179077200Y-171257200D01*
X178220057Y-171685771D02*
X178720057Y-170185771D01*
X179220057Y-171685771D01*
X179720057Y-170685771D02*
X179720057Y-171685771D01*
X179720057Y-170828628D02*
X179791485Y-170757200D01*
X179934342Y-170685771D01*
X180148628Y-170685771D01*
X180291485Y-170757200D01*
X180362914Y-170900057D01*
X180362914Y-171685771D01*
X181720057Y-171685771D02*
X181720057Y-170185771D01*
X181720057Y-171614342D02*
X181577200Y-171685771D01*
X181291485Y-171685771D01*
X181148628Y-171614342D01*
X181077200Y-171542914D01*
X181005771Y-171400057D01*
X181005771Y-170971485D01*
X181077200Y-170828628D01*
X181148628Y-170757200D01*
X181291485Y-170685771D01*
X181577200Y-170685771D01*
X181720057Y-170757200D01*
X182434342Y-171685771D02*
X182434342Y-170685771D01*
X182434342Y-170971485D02*
X182505771Y-170828628D01*
X182577200Y-170757200D01*
X182720057Y-170685771D01*
X182862914Y-170685771D01*
X183934342Y-171614342D02*
X183791485Y-171685771D01*
X183505771Y-171685771D01*
X183362914Y-171614342D01*
X183291485Y-171471485D01*
X183291485Y-170900057D01*
X183362914Y-170757200D01*
X183505771Y-170685771D01*
X183791485Y-170685771D01*
X183934342Y-170757200D01*
X184005771Y-170900057D01*
X184005771Y-171042914D01*
X183291485Y-171185771D01*
X184505771Y-170685771D02*
X184862914Y-171685771D01*
X185220057Y-170685771D02*
X184862914Y-171685771D01*
X184720057Y-172042914D01*
X184648628Y-172114342D01*
X184505771Y-172185771D01*
X186934342Y-171685771D02*
X186934342Y-170185771D01*
X187505771Y-170685771D02*
X187862914Y-171685771D01*
X188220057Y-170685771D01*
X189434342Y-171685771D02*
X189434342Y-170900057D01*
X189362914Y-170757200D01*
X189220057Y-170685771D01*
X188934342Y-170685771D01*
X188791485Y-170757200D01*
X189434342Y-171614342D02*
X189291485Y-171685771D01*
X188934342Y-171685771D01*
X188791485Y-171614342D01*
X188720057Y-171471485D01*
X188720057Y-171328628D01*
X188791485Y-171185771D01*
X188934342Y-171114342D01*
X189291485Y-171114342D01*
X189434342Y-171042914D01*
X190148628Y-170685771D02*
X190148628Y-171685771D01*
X190148628Y-170828628D02*
X190220057Y-170757200D01*
X190362914Y-170685771D01*
X190577200Y-170685771D01*
X190720057Y-170757200D01*
X190791485Y-170900057D01*
X190791485Y-171685771D01*
X191720057Y-171685771D02*
X191577200Y-171614342D01*
X191505771Y-171542914D01*
X191434342Y-171400057D01*
X191434342Y-170971485D01*
X191505771Y-170828628D01*
X191577200Y-170757200D01*
X191720057Y-170685771D01*
X191934342Y-170685771D01*
X192077200Y-170757200D01*
X192148628Y-170828628D01*
X192220057Y-170971485D01*
X192220057Y-171400057D01*
X192148628Y-171542914D01*
X192077200Y-171614342D01*
X191934342Y-171685771D01*
X191720057Y-171685771D01*
X192720057Y-170685771D02*
X193077200Y-171685771D01*
X193434342Y-170685771D01*
D10*
D11*
X178362914Y-168257200D02*
X179077200Y-168257200D01*
X178220057Y-168685771D02*
X178720057Y-167185771D01*
X179220057Y-168685771D01*
X179720057Y-167685771D02*
X179720057Y-168685771D01*
X179720057Y-167828628D02*
X179791485Y-167757200D01*
X179934342Y-167685771D01*
X180148628Y-167685771D01*
X180291485Y-167757200D01*
X180362914Y-167900057D01*
X180362914Y-168685771D01*
X181720057Y-168685771D02*
X181720057Y-167185771D01*
X181720057Y-168614342D02*
X181577200Y-168685771D01*
X181291485Y-168685771D01*
X181148628Y-168614342D01*
X181077200Y-168542914D01*
X181005771Y-168400057D01*
X181005771Y-167971485D01*
X181077200Y-167828628D01*
X181148628Y-167757200D01*
X181291485Y-167685771D01*
X181577200Y-167685771D01*
X181720057Y-167757200D01*
X182434342Y-168685771D02*
X182434342Y-167685771D01*
X182434342Y-167971485D02*
X182505771Y-167828628D01*
X182577200Y-167757200D01*
X182720057Y-167685771D01*
X182862914Y-167685771D01*
X183934342Y-168614342D02*
X183791485Y-168685771D01*
X183505771Y-168685771D01*
X183362914Y-168614342D01*
X183291485Y-168471485D01*
X183291485Y-167900057D01*
X183362914Y-167757200D01*
X183505771Y-167685771D01*
X183791485Y-167685771D01*
X183934342Y-167757200D01*
X184005771Y-167900057D01*
X184005771Y-168042914D01*
X183291485Y-168185771D01*
X184505771Y-167685771D02*
X184862914Y-168685771D01*
X185220057Y-167685771D02*
X184862914Y-168685771D01*
X184720057Y-169042914D01*
X184648628Y-169114342D01*
X184505771Y-169185771D01*
X186934342Y-168685771D02*
X186934342Y-167185771D01*
X187505771Y-167685771D02*
X187862914Y-168685771D01*
X188220057Y-167685771D01*
X189434342Y-168685771D02*
X189434342Y-167900057D01*
X189362914Y-167757200D01*
X189220057Y-167685771D01*
X188934342Y-167685771D01*
X188791485Y-167757200D01*
X189434342Y-168614342D02*
X189291485Y-168685771D01*
X188934342Y-168685771D01*
X188791485Y-168614342D01*
X188720057Y-168471485D01*
X188720057Y-168328628D01*
X188791485Y-168185771D01*
X188934342Y-168114342D01*
X189291485Y-168114342D01*
X189434342Y-168042914D01*
X190148628Y-167685771D02*
X190148628Y-168685771D01*
X190148628Y-167828628D02*
X190220057Y-167757200D01*
X190362914Y-167685771D01*
X190577200Y-167685771D01*
X190720057Y-167757200D01*
X190791485Y-167900057D01*
X190791485Y-168685771D01*
X191720057Y-168685771D02*
X191577200Y-168614342D01*
X191505771Y-168542914D01*
X191434342Y-168400057D01*
X191434342Y-167971485D01*
X191505771Y-167828628D01*
X191577200Y-167757200D01*
X191720057Y-167685771D01*
X191934342Y-167685771D01*
X192077200Y-167757200D01*
X192148628Y-167828628D01*
X192220057Y-167971485D01*
X192220057Y-168400057D01*
X192148628Y-168542914D01*
X192077200Y-168614342D01*
X191934342Y-168685771D01*
X191720057Y-168685771D01*
X192720057Y-167685771D02*
X193077200Y-168685771D01*
X193434342Y-167685771D01*
D10*
D11*
X197002200Y-191507200D02*
X197002200Y-194507200D01*
D10*
D11*
X261002200Y-191507200D02*
X261002200Y-198007200D01*
D14*
G04 #@! TO.P,J6,3*
G04 #@! TO.N,GND*
X33850000Y-40025000D03*
G04 #@! TO.P,J6,2*
X33850000Y-37485000D03*
D15*
G04 #@! TO.P,J6,1*
X33850000Y-34945000D03*
G04 #@! TD*
G04 #@! TO.P,J1,1*
G04 #@! TO.N,GND*
X64071500Y-32448500D03*
D14*
G04 #@! TO.P,J1,2*
G04 #@! TO.N,+5V*
X64071500Y-34988500D03*
G04 #@! TO.P,J1,3*
G04 #@! TO.N,Net-(J1-Pad3)*
X64071500Y-37528500D03*
G04 #@! TO.P,J1,4*
G04 #@! TO.N,Net-(J1-Pad4)*
X64071500Y-40068500D03*
G04 #@! TD*
D15*
G04 #@! TO.P,J2,1*
G04 #@! TO.N,GND*
X51545000Y-28300000D03*
D14*
G04 #@! TO.P,J2,2*
G04 #@! TO.N,Net-(J2-Pad2)*
X54085000Y-28300000D03*
G04 #@! TO.P,J2,3*
G04 #@! TO.N,+5V*
X56625000Y-28300000D03*
G04 #@! TD*
D15*
G04 #@! TO.P,J3,1*
G04 #@! TO.N,GND*
X42608500Y-72339200D03*
D14*
G04 #@! TO.P,J3,2*
G04 #@! TO.N,Net-(J3-Pad2)*
X45148500Y-72339200D03*
G04 #@! TO.P,J3,3*
G04 #@! TO.N,Net-(J3-Pad3)*
X47688500Y-72339200D03*
G04 #@! TO.P,J3,4*
G04 #@! TO.N,Net-(J3-Pad4)*
X50228500Y-72339200D03*
G04 #@! TO.P,J3,5*
G04 #@! TO.N,Net-(J3-Pad5)*
X52768500Y-72339200D03*
G04 #@! TO.P,J3,6*
G04 #@! TO.N,Net-(J3-Pad6)*
X55308500Y-72339200D03*
G04 #@! TO.P,J3,7*
G04 #@! TO.N,Net-(J3-Pad7)*
X57848500Y-72339200D03*
G04 #@! TO.P,J3,8*
G04 #@! TO.N,Net-(J3-Pad8)*
X60388500Y-72339200D03*
G04 #@! TO.P,J3,9*
G04 #@! TO.N,Net-(J3-Pad9)*
X62928500Y-72339200D03*
G04 #@! TO.P,J3,10*
G04 #@! TO.N,+5V*
X65468500Y-72339200D03*
G04 #@! TD*
G04 #@! TO.P,J4,4*
G04 #@! TO.N,Net-(J1-Pad4)*
X61302900Y-40043100D03*
G04 #@! TO.P,J4,3*
G04 #@! TO.N,Net-(J1-Pad3)*
X61302900Y-37503100D03*
G04 #@! TO.P,J4,2*
G04 #@! TO.N,+5V*
X61302900Y-34963100D03*
D15*
G04 #@! TO.P,J4,1*
G04 #@! TO.N,GND*
X61302900Y-32423100D03*
G04 #@! TD*
D16*
G04 #@! TO.N,Net-(J1-Pad3)*
G04 #@! TO.C,R1*
G36*
X66360304Y-36654704D02*
X66384573Y-36658304D01*
X66408371Y-36664265D01*
X66431471Y-36672530D01*
X66453649Y-36683020D01*
X66474693Y-36695633D01*
X66494398Y-36710247D01*
X66512577Y-36726723D01*
X66529053Y-36744902D01*
X66543667Y-36764607D01*
X66556280Y-36785651D01*
X66566770Y-36807829D01*
X66575035Y-36830929D01*
X66580996Y-36854727D01*
X66584596Y-36878996D01*
X66585800Y-36903500D01*
X66585800Y-38153500D01*
X66584596Y-38178004D01*
X66580996Y-38202273D01*
X66575035Y-38226071D01*
X66566770Y-38249171D01*
X66556280Y-38271349D01*
X66543667Y-38292393D01*
X66529053Y-38312098D01*
X66512577Y-38330277D01*
X66494398Y-38346753D01*
X66474693Y-38361367D01*
X66453649Y-38373980D01*
X66431471Y-38384470D01*
X66408371Y-38392735D01*
X66384573Y-38398696D01*
X66360304Y-38402296D01*
X66335800Y-38403500D01*
X65585800Y-38403500D01*
X65561296Y-38402296D01*
X65537027Y-38398696D01*
X65513229Y-38392735D01*
X65490129Y-38384470D01*
X65467951Y-38373980D01*
X65446907Y-38361367D01*
X65427202Y-38346753D01*
X65409023Y-38330277D01*
X65392547Y-38312098D01*
X65377933Y-38292393D01*
X65365320Y-38271349D01*
X65354830Y-38249171D01*
X65346565Y-38226071D01*
X65340604Y-38202273D01*
X65337004Y-38178004D01*
X65335800Y-38153500D01*
X65335800Y-36903500D01*
X65337004Y-36878996D01*
X65340604Y-36854727D01*
X65346565Y-36830929D01*
X65354830Y-36807829D01*
X65365320Y-36785651D01*
X65377933Y-36764607D01*
X65392547Y-36744902D01*
X65409023Y-36726723D01*
X65427202Y-36710247D01*
X65446907Y-36695633D01*
X65467951Y-36683020D01*
X65490129Y-36672530D01*
X65513229Y-36664265D01*
X65537027Y-36658304D01*
X65561296Y-36654704D01*
X65585800Y-36653500D01*
X66335800Y-36653500D01*
X66360304Y-36654704D01*
X66360304Y-36654704D01*
G37*
D17*
G04 #@! TD*
G04 #@! TO.P,R1,2*
G04 #@! TO.N,Net-(J1-Pad3)*
X65960800Y-37528500D03*
D16*
G04 #@! TO.N,+5V*
G04 #@! TO.C,R1*
G36*
X69160304Y-36654704D02*
X69184573Y-36658304D01*
X69208371Y-36664265D01*
X69231471Y-36672530D01*
X69253649Y-36683020D01*
X69274693Y-36695633D01*
X69294398Y-36710247D01*
X69312577Y-36726723D01*
X69329053Y-36744902D01*
X69343667Y-36764607D01*
X69356280Y-36785651D01*
X69366770Y-36807829D01*
X69375035Y-36830929D01*
X69380996Y-36854727D01*
X69384596Y-36878996D01*
X69385800Y-36903500D01*
X69385800Y-38153500D01*
X69384596Y-38178004D01*
X69380996Y-38202273D01*
X69375035Y-38226071D01*
X69366770Y-38249171D01*
X69356280Y-38271349D01*
X69343667Y-38292393D01*
X69329053Y-38312098D01*
X69312577Y-38330277D01*
X69294398Y-38346753D01*
X69274693Y-38361367D01*
X69253649Y-38373980D01*
X69231471Y-38384470D01*
X69208371Y-38392735D01*
X69184573Y-38398696D01*
X69160304Y-38402296D01*
X69135800Y-38403500D01*
X68385800Y-38403500D01*
X68361296Y-38402296D01*
X68337027Y-38398696D01*
X68313229Y-38392735D01*
X68290129Y-38384470D01*
X68267951Y-38373980D01*
X68246907Y-38361367D01*
X68227202Y-38346753D01*
X68209023Y-38330277D01*
X68192547Y-38312098D01*
X68177933Y-38292393D01*
X68165320Y-38271349D01*
X68154830Y-38249171D01*
X68146565Y-38226071D01*
X68140604Y-38202273D01*
X68137004Y-38178004D01*
X68135800Y-38153500D01*
X68135800Y-36903500D01*
X68137004Y-36878996D01*
X68140604Y-36854727D01*
X68146565Y-36830929D01*
X68154830Y-36807829D01*
X68165320Y-36785651D01*
X68177933Y-36764607D01*
X68192547Y-36744902D01*
X68209023Y-36726723D01*
X68227202Y-36710247D01*
X68246907Y-36695633D01*
X68267951Y-36683020D01*
X68290129Y-36672530D01*
X68313229Y-36664265D01*
X68337027Y-36658304D01*
X68361296Y-36654704D01*
X68385800Y-36653500D01*
X69135800Y-36653500D01*
X69160304Y-36654704D01*
X69160304Y-36654704D01*
G37*
D17*
G04 #@! TD*
G04 #@! TO.P,R1,1*
G04 #@! TO.N,+5V*
X68760800Y-37528500D03*
D16*
G04 #@! TO.N,+5V*
G04 #@! TO.C,R2*
G36*
X69173004Y-39169304D02*
X69197273Y-39172904D01*
X69221071Y-39178865D01*
X69244171Y-39187130D01*
X69266349Y-39197620D01*
X69287393Y-39210233D01*
X69307098Y-39224847D01*
X69325277Y-39241323D01*
X69341753Y-39259502D01*
X69356367Y-39279207D01*
X69368980Y-39300251D01*
X69379470Y-39322429D01*
X69387735Y-39345529D01*
X69393696Y-39369327D01*
X69397296Y-39393596D01*
X69398500Y-39418100D01*
X69398500Y-40668100D01*
X69397296Y-40692604D01*
X69393696Y-40716873D01*
X69387735Y-40740671D01*
X69379470Y-40763771D01*
X69368980Y-40785949D01*
X69356367Y-40806993D01*
X69341753Y-40826698D01*
X69325277Y-40844877D01*
X69307098Y-40861353D01*
X69287393Y-40875967D01*
X69266349Y-40888580D01*
X69244171Y-40899070D01*
X69221071Y-40907335D01*
X69197273Y-40913296D01*
X69173004Y-40916896D01*
X69148500Y-40918100D01*
X68398500Y-40918100D01*
X68373996Y-40916896D01*
X68349727Y-40913296D01*
X68325929Y-40907335D01*
X68302829Y-40899070D01*
X68280651Y-40888580D01*
X68259607Y-40875967D01*
X68239902Y-40861353D01*
X68221723Y-40844877D01*
X68205247Y-40826698D01*
X68190633Y-40806993D01*
X68178020Y-40785949D01*
X68167530Y-40763771D01*
X68159265Y-40740671D01*
X68153304Y-40716873D01*
X68149704Y-40692604D01*
X68148500Y-40668100D01*
X68148500Y-39418100D01*
X68149704Y-39393596D01*
X68153304Y-39369327D01*
X68159265Y-39345529D01*
X68167530Y-39322429D01*
X68178020Y-39300251D01*
X68190633Y-39279207D01*
X68205247Y-39259502D01*
X68221723Y-39241323D01*
X68239902Y-39224847D01*
X68259607Y-39210233D01*
X68280651Y-39197620D01*
X68302829Y-39187130D01*
X68325929Y-39178865D01*
X68349727Y-39172904D01*
X68373996Y-39169304D01*
X68398500Y-39168100D01*
X69148500Y-39168100D01*
X69173004Y-39169304D01*
X69173004Y-39169304D01*
G37*
D17*
G04 #@! TD*
G04 #@! TO.P,R2,1*
G04 #@! TO.N,+5V*
X68773500Y-40043100D03*
D16*
G04 #@! TO.N,Net-(J1-Pad4)*
G04 #@! TO.C,R2*
G36*
X66373004Y-39169304D02*
X66397273Y-39172904D01*
X66421071Y-39178865D01*
X66444171Y-39187130D01*
X66466349Y-39197620D01*
X66487393Y-39210233D01*
X66507098Y-39224847D01*
X66525277Y-39241323D01*
X66541753Y-39259502D01*
X66556367Y-39279207D01*
X66568980Y-39300251D01*
X66579470Y-39322429D01*
X66587735Y-39345529D01*
X66593696Y-39369327D01*
X66597296Y-39393596D01*
X66598500Y-39418100D01*
X66598500Y-40668100D01*
X66597296Y-40692604D01*
X66593696Y-40716873D01*
X66587735Y-40740671D01*
X66579470Y-40763771D01*
X66568980Y-40785949D01*
X66556367Y-40806993D01*
X66541753Y-40826698D01*
X66525277Y-40844877D01*
X66507098Y-40861353D01*
X66487393Y-40875967D01*
X66466349Y-40888580D01*
X66444171Y-40899070D01*
X66421071Y-40907335D01*
X66397273Y-40913296D01*
X66373004Y-40916896D01*
X66348500Y-40918100D01*
X65598500Y-40918100D01*
X65573996Y-40916896D01*
X65549727Y-40913296D01*
X65525929Y-40907335D01*
X65502829Y-40899070D01*
X65480651Y-40888580D01*
X65459607Y-40875967D01*
X65439902Y-40861353D01*
X65421723Y-40844877D01*
X65405247Y-40826698D01*
X65390633Y-40806993D01*
X65378020Y-40785949D01*
X65367530Y-40763771D01*
X65359265Y-40740671D01*
X65353304Y-40716873D01*
X65349704Y-40692604D01*
X65348500Y-40668100D01*
X65348500Y-39418100D01*
X65349704Y-39393596D01*
X65353304Y-39369327D01*
X65359265Y-39345529D01*
X65367530Y-39322429D01*
X65378020Y-39300251D01*
X65390633Y-39279207D01*
X65405247Y-39259502D01*
X65421723Y-39241323D01*
X65439902Y-39224847D01*
X65459607Y-39210233D01*
X65480651Y-39197620D01*
X65502829Y-39187130D01*
X65525929Y-39178865D01*
X65549727Y-39172904D01*
X65573996Y-39169304D01*
X65598500Y-39168100D01*
X66348500Y-39168100D01*
X66373004Y-39169304D01*
X66373004Y-39169304D01*
G37*
D17*
G04 #@! TD*
G04 #@! TO.P,R2,2*
G04 #@! TO.N,Net-(J1-Pad4)*
X65973500Y-40043100D03*
D16*
G04 #@! TO.N,+5V*
G04 #@! TO.C,R3*
G36*
X57699504Y-31426204D02*
X57723773Y-31429804D01*
X57747571Y-31435765D01*
X57770671Y-31444030D01*
X57792849Y-31454520D01*
X57813893Y-31467133D01*
X57833598Y-31481747D01*
X57851777Y-31498223D01*
X57868253Y-31516402D01*
X57882867Y-31536107D01*
X57895480Y-31557151D01*
X57905970Y-31579329D01*
X57914235Y-31602429D01*
X57920196Y-31626227D01*
X57923796Y-31650496D01*
X57925000Y-31675000D01*
X57925000Y-32925000D01*
X57923796Y-32949504D01*
X57920196Y-32973773D01*
X57914235Y-32997571D01*
X57905970Y-33020671D01*
X57895480Y-33042849D01*
X57882867Y-33063893D01*
X57868253Y-33083598D01*
X57851777Y-33101777D01*
X57833598Y-33118253D01*
X57813893Y-33132867D01*
X57792849Y-33145480D01*
X57770671Y-33155970D01*
X57747571Y-33164235D01*
X57723773Y-33170196D01*
X57699504Y-33173796D01*
X57675000Y-33175000D01*
X56925000Y-33175000D01*
X56900496Y-33173796D01*
X56876227Y-33170196D01*
X56852429Y-33164235D01*
X56829329Y-33155970D01*
X56807151Y-33145480D01*
X56786107Y-33132867D01*
X56766402Y-33118253D01*
X56748223Y-33101777D01*
X56731747Y-33083598D01*
X56717133Y-33063893D01*
X56704520Y-33042849D01*
X56694030Y-33020671D01*
X56685765Y-32997571D01*
X56679804Y-32973773D01*
X56676204Y-32949504D01*
X56675000Y-32925000D01*
X56675000Y-31675000D01*
X56676204Y-31650496D01*
X56679804Y-31626227D01*
X56685765Y-31602429D01*
X56694030Y-31579329D01*
X56704520Y-31557151D01*
X56717133Y-31536107D01*
X56731747Y-31516402D01*
X56748223Y-31498223D01*
X56766402Y-31481747D01*
X56786107Y-31467133D01*
X56807151Y-31454520D01*
X56829329Y-31444030D01*
X56852429Y-31435765D01*
X56876227Y-31429804D01*
X56900496Y-31426204D01*
X56925000Y-31425000D01*
X57675000Y-31425000D01*
X57699504Y-31426204D01*
X57699504Y-31426204D01*
G37*
D17*
G04 #@! TD*
G04 #@! TO.P,R3,1*
G04 #@! TO.N,+5V*
X57300000Y-32300000D03*
D16*
G04 #@! TO.N,Net-(J2-Pad2)*
G04 #@! TO.C,R3*
G36*
X54899504Y-31426204D02*
X54923773Y-31429804D01*
X54947571Y-31435765D01*
X54970671Y-31444030D01*
X54992849Y-31454520D01*
X55013893Y-31467133D01*
X55033598Y-31481747D01*
X55051777Y-31498223D01*
X55068253Y-31516402D01*
X55082867Y-31536107D01*
X55095480Y-31557151D01*
X55105970Y-31579329D01*
X55114235Y-31602429D01*
X55120196Y-31626227D01*
X55123796Y-31650496D01*
X55125000Y-31675000D01*
X55125000Y-32925000D01*
X55123796Y-32949504D01*
X55120196Y-32973773D01*
X55114235Y-32997571D01*
X55105970Y-33020671D01*
X55095480Y-33042849D01*
X55082867Y-33063893D01*
X55068253Y-33083598D01*
X55051777Y-33101777D01*
X55033598Y-33118253D01*
X55013893Y-33132867D01*
X54992849Y-33145480D01*
X54970671Y-33155970D01*
X54947571Y-33164235D01*
X54923773Y-33170196D01*
X54899504Y-33173796D01*
X54875000Y-33175000D01*
X54125000Y-33175000D01*
X54100496Y-33173796D01*
X54076227Y-33170196D01*
X54052429Y-33164235D01*
X54029329Y-33155970D01*
X54007151Y-33145480D01*
X53986107Y-33132867D01*
X53966402Y-33118253D01*
X53948223Y-33101777D01*
X53931747Y-33083598D01*
X53917133Y-33063893D01*
X53904520Y-33042849D01*
X53894030Y-33020671D01*
X53885765Y-32997571D01*
X53879804Y-32973773D01*
X53876204Y-32949504D01*
X53875000Y-32925000D01*
X53875000Y-31675000D01*
X53876204Y-31650496D01*
X53879804Y-31626227D01*
X53885765Y-31602429D01*
X53894030Y-31579329D01*
X53904520Y-31557151D01*
X53917133Y-31536107D01*
X53931747Y-31516402D01*
X53948223Y-31498223D01*
X53966402Y-31481747D01*
X53986107Y-31467133D01*
X54007151Y-31454520D01*
X54029329Y-31444030D01*
X54052429Y-31435765D01*
X54076227Y-31429804D01*
X54100496Y-31426204D01*
X54125000Y-31425000D01*
X54875000Y-31425000D01*
X54899504Y-31426204D01*
X54899504Y-31426204D01*
G37*
D17*
G04 #@! TD*
G04 #@! TO.P,R3,2*
G04 #@! TO.N,Net-(J2-Pad2)*
X54500000Y-32300000D03*
D18*
G04 #@! TO.P,U1,1*
G04 #@! TO.N,Net-(J5-Pad1)*
X50139600Y-34975800D03*
D19*
G04 #@! TO.P,U1,9*
G04 #@! TO.N,Net-(J3-Pad6)*
X57759600Y-52755800D03*
G04 #@! TO.P,U1,2*
G04 #@! TO.N,Net-(J5-Pad2)*
X50139600Y-37515800D03*
G04 #@! TO.P,U1,10*
G04 #@! TO.N,Net-(J3-Pad7)*
X57759600Y-50215800D03*
G04 #@! TO.P,U1,3*
G04 #@! TO.N,Net-(J5-Pad3)*
X50139600Y-40055800D03*
G04 #@! TO.P,U1,11*
G04 #@! TO.N,Net-(J3-Pad8)*
X57759600Y-47675800D03*
G04 #@! TO.P,U1,4*
G04 #@! TO.N,Net-(J3-Pad2)*
X50139600Y-42595800D03*
G04 #@! TO.P,U1,12*
G04 #@! TO.N,Net-(J3-Pad9)*
X57759600Y-45135800D03*
G04 #@! TO.P,U1,5*
G04 #@! TO.N,Net-(J3-Pad3)*
X50139600Y-45135800D03*
G04 #@! TO.P,U1,13*
G04 #@! TO.N,Net-(J2-Pad2)*
X57759600Y-42595800D03*
G04 #@! TO.P,U1,6*
G04 #@! TO.N,Net-(J3-Pad4)*
X50139600Y-47675800D03*
G04 #@! TO.P,U1,14*
G04 #@! TO.N,Net-(J1-Pad4)*
X57759600Y-40055800D03*
G04 #@! TO.P,U1,7*
G04 #@! TO.N,Net-(J3-Pad5)*
X50139600Y-50215800D03*
G04 #@! TO.P,U1,15*
G04 #@! TO.N,Net-(J1-Pad3)*
X57759600Y-37515800D03*
G04 #@! TO.P,U1,8*
G04 #@! TO.N,GND*
X50139600Y-52755800D03*
G04 #@! TO.P,U1,16*
G04 #@! TO.N,+5V*
X57759600Y-34975800D03*
G04 #@! TD*
D15*
G04 #@! TO.P,J5,1*
G04 #@! TO.N,Net-(J5-Pad1)*
X37700000Y-34945000D03*
D14*
G04 #@! TO.P,J5,2*
G04 #@! TO.N,Net-(J5-Pad2)*
X37700000Y-37485000D03*
G04 #@! TO.P,J5,3*
G04 #@! TO.N,Net-(J5-Pad3)*
X37700000Y-40025000D03*
G04 #@! TD*
D16*
G04 #@! TO.N,+5V*
G04 #@! TO.C,R4*
G36*
X41474504Y-23101204D02*
X41498773Y-23104804D01*
X41522571Y-23110765D01*
X41545671Y-23119030D01*
X41567849Y-23129520D01*
X41588893Y-23142133D01*
X41608598Y-23156747D01*
X41626777Y-23173223D01*
X41643253Y-23191402D01*
X41657867Y-23211107D01*
X41670480Y-23232151D01*
X41680970Y-23254329D01*
X41689235Y-23277429D01*
X41695196Y-23301227D01*
X41698796Y-23325496D01*
X41700000Y-23350000D01*
X41700000Y-24100000D01*
X41698796Y-24124504D01*
X41695196Y-24148773D01*
X41689235Y-24172571D01*
X41680970Y-24195671D01*
X41670480Y-24217849D01*
X41657867Y-24238893D01*
X41643253Y-24258598D01*
X41626777Y-24276777D01*
X41608598Y-24293253D01*
X41588893Y-24307867D01*
X41567849Y-24320480D01*
X41545671Y-24330970D01*
X41522571Y-24339235D01*
X41498773Y-24345196D01*
X41474504Y-24348796D01*
X41450000Y-24350000D01*
X40200000Y-24350000D01*
X40175496Y-24348796D01*
X40151227Y-24345196D01*
X40127429Y-24339235D01*
X40104329Y-24330970D01*
X40082151Y-24320480D01*
X40061107Y-24307867D01*
X40041402Y-24293253D01*
X40023223Y-24276777D01*
X40006747Y-24258598D01*
X39992133Y-24238893D01*
X39979520Y-24217849D01*
X39969030Y-24195671D01*
X39960765Y-24172571D01*
X39954804Y-24148773D01*
X39951204Y-24124504D01*
X39950000Y-24100000D01*
X39950000Y-23350000D01*
X39951204Y-23325496D01*
X39954804Y-23301227D01*
X39960765Y-23277429D01*
X39969030Y-23254329D01*
X39979520Y-23232151D01*
X39992133Y-23211107D01*
X40006747Y-23191402D01*
X40023223Y-23173223D01*
X40041402Y-23156747D01*
X40061107Y-23142133D01*
X40082151Y-23129520D01*
X40104329Y-23119030D01*
X40127429Y-23110765D01*
X40151227Y-23104804D01*
X40175496Y-23101204D01*
X40200000Y-23100000D01*
X41450000Y-23100000D01*
X41474504Y-23101204D01*
X41474504Y-23101204D01*
G37*
D17*
G04 #@! TD*
G04 #@! TO.P,R4,1*
G04 #@! TO.N,+5V*
X40825000Y-23725000D03*
D16*
G04 #@! TO.N,Net-(J5-Pad3)*
G04 #@! TO.C,R4*
G36*
X41474504Y-25901204D02*
X41498773Y-25904804D01*
X41522571Y-25910765D01*
X41545671Y-25919030D01*
X41567849Y-25929520D01*
X41588893Y-25942133D01*
X41608598Y-25956747D01*
X41626777Y-25973223D01*
X41643253Y-25991402D01*
X41657867Y-26011107D01*
X41670480Y-26032151D01*
X41680970Y-26054329D01*
X41689235Y-26077429D01*
X41695196Y-26101227D01*
X41698796Y-26125496D01*
X41700000Y-26150000D01*
X41700000Y-26900000D01*
X41698796Y-26924504D01*
X41695196Y-26948773D01*
X41689235Y-26972571D01*
X41680970Y-26995671D01*
X41670480Y-27017849D01*
X41657867Y-27038893D01*
X41643253Y-27058598D01*
X41626777Y-27076777D01*
X41608598Y-27093253D01*
X41588893Y-27107867D01*
X41567849Y-27120480D01*
X41545671Y-27130970D01*
X41522571Y-27139235D01*
X41498773Y-27145196D01*
X41474504Y-27148796D01*
X41450000Y-27150000D01*
X40200000Y-27150000D01*
X40175496Y-27148796D01*
X40151227Y-27145196D01*
X40127429Y-27139235D01*
X40104329Y-27130970D01*
X40082151Y-27120480D01*
X40061107Y-27107867D01*
X40041402Y-27093253D01*
X40023223Y-27076777D01*
X40006747Y-27058598D01*
X39992133Y-27038893D01*
X39979520Y-27017849D01*
X39969030Y-26995671D01*
X39960765Y-26972571D01*
X39954804Y-26948773D01*
X39951204Y-26924504D01*
X39950000Y-26900000D01*
X39950000Y-26150000D01*
X39951204Y-26125496D01*
X39954804Y-26101227D01*
X39960765Y-26077429D01*
X39969030Y-26054329D01*
X39979520Y-26032151D01*
X39992133Y-26011107D01*
X40006747Y-25991402D01*
X40023223Y-25973223D01*
X40041402Y-25956747D01*
X40061107Y-25942133D01*
X40082151Y-25929520D01*
X40104329Y-25919030D01*
X40127429Y-25910765D01*
X40151227Y-25904804D01*
X40175496Y-25901204D01*
X40200000Y-25900000D01*
X41450000Y-25900000D01*
X41474504Y-25901204D01*
X41474504Y-25901204D01*
G37*
D17*
G04 #@! TD*
G04 #@! TO.P,R4,2*
G04 #@! TO.N,Net-(J5-Pad3)*
X40825000Y-26525000D03*
D16*
G04 #@! TO.N,Net-(J5-Pad2)*
G04 #@! TO.C,R5*
G36*
X44349504Y-25851204D02*
X44373773Y-25854804D01*
X44397571Y-25860765D01*
X44420671Y-25869030D01*
X44442849Y-25879520D01*
X44463893Y-25892133D01*
X44483598Y-25906747D01*
X44501777Y-25923223D01*
X44518253Y-25941402D01*
X44532867Y-25961107D01*
X44545480Y-25982151D01*
X44555970Y-26004329D01*
X44564235Y-26027429D01*
X44570196Y-26051227D01*
X44573796Y-26075496D01*
X44575000Y-26100000D01*
X44575000Y-26850000D01*
X44573796Y-26874504D01*
X44570196Y-26898773D01*
X44564235Y-26922571D01*
X44555970Y-26945671D01*
X44545480Y-26967849D01*
X44532867Y-26988893D01*
X44518253Y-27008598D01*
X44501777Y-27026777D01*
X44483598Y-27043253D01*
X44463893Y-27057867D01*
X44442849Y-27070480D01*
X44420671Y-27080970D01*
X44397571Y-27089235D01*
X44373773Y-27095196D01*
X44349504Y-27098796D01*
X44325000Y-27100000D01*
X43075000Y-27100000D01*
X43050496Y-27098796D01*
X43026227Y-27095196D01*
X43002429Y-27089235D01*
X42979329Y-27080970D01*
X42957151Y-27070480D01*
X42936107Y-27057867D01*
X42916402Y-27043253D01*
X42898223Y-27026777D01*
X42881747Y-27008598D01*
X42867133Y-26988893D01*
X42854520Y-26967849D01*
X42844030Y-26945671D01*
X42835765Y-26922571D01*
X42829804Y-26898773D01*
X42826204Y-26874504D01*
X42825000Y-26850000D01*
X42825000Y-26100000D01*
X42826204Y-26075496D01*
X42829804Y-26051227D01*
X42835765Y-26027429D01*
X42844030Y-26004329D01*
X42854520Y-25982151D01*
X42867133Y-25961107D01*
X42881747Y-25941402D01*
X42898223Y-25923223D01*
X42916402Y-25906747D01*
X42936107Y-25892133D01*
X42957151Y-25879520D01*
X42979329Y-25869030D01*
X43002429Y-25860765D01*
X43026227Y-25854804D01*
X43050496Y-25851204D01*
X43075000Y-25850000D01*
X44325000Y-25850000D01*
X44349504Y-25851204D01*
X44349504Y-25851204D01*
G37*
D17*
G04 #@! TD*
G04 #@! TO.P,R5,2*
G04 #@! TO.N,Net-(J5-Pad2)*
X43700000Y-26475000D03*
D16*
G04 #@! TO.N,+5V*
G04 #@! TO.C,R5*
G36*
X44349504Y-23051204D02*
X44373773Y-23054804D01*
X44397571Y-23060765D01*
X44420671Y-23069030D01*
X44442849Y-23079520D01*
X44463893Y-23092133D01*
X44483598Y-23106747D01*
X44501777Y-23123223D01*
X44518253Y-23141402D01*
X44532867Y-23161107D01*
X44545480Y-23182151D01*
X44555970Y-23204329D01*
X44564235Y-23227429D01*
X44570196Y-23251227D01*
X44573796Y-23275496D01*
X44575000Y-23300000D01*
X44575000Y-24050000D01*
X44573796Y-24074504D01*
X44570196Y-24098773D01*
X44564235Y-24122571D01*
X44555970Y-24145671D01*
X44545480Y-24167849D01*
X44532867Y-24188893D01*
X44518253Y-24208598D01*
X44501777Y-24226777D01*
X44483598Y-24243253D01*
X44463893Y-24257867D01*
X44442849Y-24270480D01*
X44420671Y-24280970D01*
X44397571Y-24289235D01*
X44373773Y-24295196D01*
X44349504Y-24298796D01*
X44325000Y-24300000D01*
X43075000Y-24300000D01*
X43050496Y-24298796D01*
X43026227Y-24295196D01*
X43002429Y-24289235D01*
X42979329Y-24280970D01*
X42957151Y-24270480D01*
X42936107Y-24257867D01*
X42916402Y-24243253D01*
X42898223Y-24226777D01*
X42881747Y-24208598D01*
X42867133Y-24188893D01*
X42854520Y-24167849D01*
X42844030Y-24145671D01*
X42835765Y-24122571D01*
X42829804Y-24098773D01*
X42826204Y-24074504D01*
X42825000Y-24050000D01*
X42825000Y-23300000D01*
X42826204Y-23275496D01*
X42829804Y-23251227D01*
X42835765Y-23227429D01*
X42844030Y-23204329D01*
X42854520Y-23182151D01*
X42867133Y-23161107D01*
X42881747Y-23141402D01*
X42898223Y-23123223D01*
X42916402Y-23106747D01*
X42936107Y-23092133D01*
X42957151Y-23079520D01*
X42979329Y-23069030D01*
X43002429Y-23060765D01*
X43026227Y-23054804D01*
X43050496Y-23051204D01*
X43075000Y-23050000D01*
X44325000Y-23050000D01*
X44349504Y-23051204D01*
X44349504Y-23051204D01*
G37*
D17*
G04 #@! TD*
G04 #@! TO.P,R5,1*
G04 #@! TO.N,+5V*
X43700000Y-23675000D03*
D16*
G04 #@! TO.N,+5V*
G04 #@! TO.C,R6*
G36*
X47249504Y-23076204D02*
X47273773Y-23079804D01*
X47297571Y-23085765D01*
X47320671Y-23094030D01*
X47342849Y-23104520D01*
X47363893Y-23117133D01*
X47383598Y-23131747D01*
X47401777Y-23148223D01*
X47418253Y-23166402D01*
X47432867Y-23186107D01*
X47445480Y-23207151D01*
X47455970Y-23229329D01*
X47464235Y-23252429D01*
X47470196Y-23276227D01*
X47473796Y-23300496D01*
X47475000Y-23325000D01*
X47475000Y-24075000D01*
X47473796Y-24099504D01*
X47470196Y-24123773D01*
X47464235Y-24147571D01*
X47455970Y-24170671D01*
X47445480Y-24192849D01*
X47432867Y-24213893D01*
X47418253Y-24233598D01*
X47401777Y-24251777D01*
X47383598Y-24268253D01*
X47363893Y-24282867D01*
X47342849Y-24295480D01*
X47320671Y-24305970D01*
X47297571Y-24314235D01*
X47273773Y-24320196D01*
X47249504Y-24323796D01*
X47225000Y-24325000D01*
X45975000Y-24325000D01*
X45950496Y-24323796D01*
X45926227Y-24320196D01*
X45902429Y-24314235D01*
X45879329Y-24305970D01*
X45857151Y-24295480D01*
X45836107Y-24282867D01*
X45816402Y-24268253D01*
X45798223Y-24251777D01*
X45781747Y-24233598D01*
X45767133Y-24213893D01*
X45754520Y-24192849D01*
X45744030Y-24170671D01*
X45735765Y-24147571D01*
X45729804Y-24123773D01*
X45726204Y-24099504D01*
X45725000Y-24075000D01*
X45725000Y-23325000D01*
X45726204Y-23300496D01*
X45729804Y-23276227D01*
X45735765Y-23252429D01*
X45744030Y-23229329D01*
X45754520Y-23207151D01*
X45767133Y-23186107D01*
X45781747Y-23166402D01*
X45798223Y-23148223D01*
X45816402Y-23131747D01*
X45836107Y-23117133D01*
X45857151Y-23104520D01*
X45879329Y-23094030D01*
X45902429Y-23085765D01*
X45926227Y-23079804D01*
X45950496Y-23076204D01*
X45975000Y-23075000D01*
X47225000Y-23075000D01*
X47249504Y-23076204D01*
X47249504Y-23076204D01*
G37*
D17*
G04 #@! TD*
G04 #@! TO.P,R6,1*
G04 #@! TO.N,+5V*
X46600000Y-23700000D03*
D16*
G04 #@! TO.N,Net-(J5-Pad1)*
G04 #@! TO.C,R6*
G36*
X47249504Y-25876204D02*
X47273773Y-25879804D01*
X47297571Y-25885765D01*
X47320671Y-25894030D01*
X47342849Y-25904520D01*
X47363893Y-25917133D01*
X47383598Y-25931747D01*
X47401777Y-25948223D01*
X47418253Y-25966402D01*
X47432867Y-25986107D01*
X47445480Y-26007151D01*
X47455970Y-26029329D01*
X47464235Y-26052429D01*
X47470196Y-26076227D01*
X47473796Y-26100496D01*
X47475000Y-26125000D01*
X47475000Y-26875000D01*
X47473796Y-26899504D01*
X47470196Y-26923773D01*
X47464235Y-26947571D01*
X47455970Y-26970671D01*
X47445480Y-26992849D01*
X47432867Y-27013893D01*
X47418253Y-27033598D01*
X47401777Y-27051777D01*
X47383598Y-27068253D01*
X47363893Y-27082867D01*
X47342849Y-27095480D01*
X47320671Y-27105970D01*
X47297571Y-27114235D01*
X47273773Y-27120196D01*
X47249504Y-27123796D01*
X47225000Y-27125000D01*
X45975000Y-27125000D01*
X45950496Y-27123796D01*
X45926227Y-27120196D01*
X45902429Y-27114235D01*
X45879329Y-27105970D01*
X45857151Y-27095480D01*
X45836107Y-27082867D01*
X45816402Y-27068253D01*
X45798223Y-27051777D01*
X45781747Y-27033598D01*
X45767133Y-27013893D01*
X45754520Y-26992849D01*
X45744030Y-26970671D01*
X45735765Y-26947571D01*
X45729804Y-26923773D01*
X45726204Y-26899504D01*
X45725000Y-26875000D01*
X45725000Y-26125000D01*
X45726204Y-26100496D01*
X45729804Y-26076227D01*
X45735765Y-26052429D01*
X45744030Y-26029329D01*
X45754520Y-26007151D01*
X45767133Y-25986107D01*
X45781747Y-25966402D01*
X45798223Y-25948223D01*
X45816402Y-25931747D01*
X45836107Y-25917133D01*
X45857151Y-25904520D01*
X45879329Y-25894030D01*
X45902429Y-25885765D01*
X45926227Y-25879804D01*
X45950496Y-25876204D01*
X45975000Y-25875000D01*
X47225000Y-25875000D01*
X47249504Y-25876204D01*
X47249504Y-25876204D01*
G37*
D17*
G04 #@! TD*
G04 #@! TO.P,R6,2*
G04 #@! TO.N,Net-(J5-Pad1)*
X46600000Y-26500000D03*
D20*
G04 #@! TO.N,GND*
X35636200Y-56527700D03*
X50114200Y-56540400D03*
G04 #@! TO.N,Net-(J5-Pad2)*
X43700000Y-29550000D03*
X44100000Y-37525000D03*
G04 #@! TO.N,Net-(J5-Pad3)*
X40825000Y-29550000D03*
X41200000Y-40025000D03*
G04 #@! TO.N,Net-(J5-Pad1)*
X46600000Y-29525000D03*
X46600000Y-34975000D03*
G04 #@! TD*
D21*
G04 #@! TO.N,GND*
X64071500Y-32448500D02*
X63906400Y-32448500D01*
X61302900Y-32423100D02*
X64046100Y-32423100D01*
X64046100Y-32423100D02*
X64071500Y-32448500D01*
X35636200Y-62788800D02*
X35636200Y-56527700D01*
X50139600Y-52755800D02*
X50139600Y-56489600D01*
X50114200Y-56515000D02*
X50114200Y-56540400D01*
X50139600Y-56489600D02*
X50114200Y-56515000D01*
X42608500Y-72339200D02*
X42608500Y-70233500D01*
X35636200Y-63261200D02*
X35636200Y-62788800D01*
X42608500Y-70233500D02*
X35636200Y-63261200D01*
X51545000Y-31350000D02*
X51545000Y-28300000D01*
X50445000Y-32450000D02*
X51545000Y-31350000D01*
X34275000Y-32450000D02*
X50445000Y-32450000D01*
X33850000Y-44800000D02*
X33850000Y-40025000D01*
X35636200Y-56527700D02*
X35636200Y-46586200D01*
X35636200Y-46586200D02*
X33850000Y-44800000D01*
X33850000Y-40025000D02*
X33850000Y-37485000D01*
X33850000Y-37485000D02*
X33850000Y-34945000D01*
X33850000Y-32875000D02*
X34275000Y-32450000D01*
X33850000Y-34945000D02*
X33850000Y-32875000D01*
X42608500Y-72339200D02*
X42608500Y-74283500D01*
X71802382Y-75675010D02*
X72688910Y-74788482D01*
X42608500Y-74283500D02*
X44000010Y-75675010D01*
X44000010Y-75675010D02*
X71802382Y-75675010D01*
X69214226Y-32448500D02*
X67121500Y-32448500D01*
X67121500Y-32448500D02*
X64071500Y-32448500D01*
X72688910Y-35923184D02*
X69214226Y-32448500D01*
X72688910Y-74788482D02*
X72688910Y-35923184D01*
G04 #@! TO.N,+5V*
X61302900Y-34963100D02*
X64046100Y-34963100D01*
X64046100Y-34963100D02*
X64071500Y-34988500D01*
X65468500Y-66179700D02*
X65468500Y-72339200D01*
X56616600Y-30035500D02*
X57759600Y-31178500D01*
X57759600Y-34975800D02*
X61480700Y-34975800D01*
X57759600Y-34975800D02*
X57759600Y-31178500D01*
X56625000Y-30027100D02*
X56616600Y-30035500D01*
X56625000Y-28300000D02*
X56625000Y-30027100D01*
X56625000Y-28300000D02*
X56625000Y-25625000D01*
X54700000Y-23700000D02*
X46600000Y-23700000D01*
X56625000Y-25625000D02*
X54700000Y-23700000D01*
X43725000Y-23700000D02*
X43700000Y-23675000D01*
X46600000Y-23700000D02*
X43725000Y-23700000D01*
X40875000Y-23675000D02*
X40825000Y-23725000D01*
X43700000Y-23675000D02*
X40875000Y-23675000D01*
X65468500Y-66179700D02*
X65545300Y-66179700D01*
X65545300Y-66179700D02*
X69700000Y-62025000D01*
X69700000Y-40969600D02*
X68773500Y-40043100D01*
X69700000Y-62025000D02*
X69700000Y-40969600D01*
X68773500Y-37541200D02*
X68760800Y-37528500D01*
X68773500Y-40043100D02*
X68773500Y-37541200D01*
X68760800Y-37528500D02*
X68760800Y-35389200D01*
X68360100Y-34988500D02*
X64071500Y-34988500D01*
X68760800Y-35389200D02*
X68360100Y-34988500D01*
G04 #@! TO.N,Net-(J2-Pad2)*
X54085000Y-38490000D02*
X54085000Y-28300000D01*
X54076600Y-38498400D02*
X54085000Y-38490000D01*
X57759600Y-42595800D02*
X54495700Y-42595800D01*
X54076600Y-42176700D02*
X54076600Y-38498400D01*
X54495700Y-42595800D02*
X54076600Y-42176700D01*
G04 #@! TO.N,Net-(J3-Pad2)*
X45148500Y-72339200D02*
X45148500Y-68592700D01*
X44043600Y-42595800D02*
X50139600Y-42595800D01*
X38150800Y-48488600D02*
X44043600Y-42595800D01*
X38150800Y-61595000D02*
X38150800Y-48488600D01*
X45148500Y-68592700D02*
X38150800Y-61595000D01*
G04 #@! TO.N,Net-(J3-Pad3)*
X45319950Y-64928750D02*
X47656750Y-64928750D01*
X47688500Y-64960500D02*
X47688500Y-68973700D01*
X47656750Y-64928750D02*
X47688500Y-64960500D01*
X50139600Y-45135800D02*
X45123100Y-45135800D01*
X47688500Y-68973700D02*
X47688500Y-72339200D01*
X40817800Y-60426600D02*
X45319950Y-64928750D01*
X40817800Y-49441100D02*
X40817800Y-60426600D01*
X45123100Y-45135800D02*
X40817800Y-49441100D01*
G04 #@! TO.N,Net-(J3-Pad4)*
X46526450Y-62312550D02*
X50184050Y-62312550D01*
X50228500Y-62357000D02*
X50228500Y-66014600D01*
X50184050Y-62312550D02*
X50228500Y-62357000D01*
X50228500Y-72339200D02*
X50228500Y-66014600D01*
X46101000Y-47675800D02*
X50139600Y-47675800D01*
X43484800Y-50292000D02*
X46101000Y-47675800D01*
X43484800Y-59270900D02*
X43484800Y-50292000D01*
X46526450Y-62312550D02*
X43484800Y-59270900D01*
G04 #@! TO.N,Net-(J3-Pad5)*
X47167800Y-50215800D02*
X46037500Y-51346100D01*
X52768500Y-67017900D02*
X52768500Y-72339200D01*
X46037500Y-51346100D02*
X46037500Y-58204100D01*
X50139600Y-50215800D02*
X47167800Y-50215800D01*
X46037500Y-58204100D02*
X47402750Y-59569350D01*
X47402750Y-59569350D02*
X52647850Y-59569350D01*
X52647850Y-59569350D02*
X52768500Y-59690000D01*
X52768500Y-59690000D02*
X52768500Y-67017900D01*
G04 #@! TO.N,Net-(J3-Pad6)*
X57759600Y-52755800D02*
X58839100Y-52755800D01*
X58839100Y-52755800D02*
X59205792Y-53122492D01*
X55308500Y-59524900D02*
X55308500Y-67767200D01*
X55448200Y-59385200D02*
X55308500Y-59524900D01*
X57962800Y-59385200D02*
X55448200Y-59385200D01*
X59205792Y-58142208D02*
X57962800Y-59385200D01*
X59205792Y-53122492D02*
X59205792Y-58142208D01*
X55308500Y-72339200D02*
X55308500Y-67767200D01*
G04 #@! TO.N,Net-(J3-Pad7)*
X57848500Y-72339200D02*
X57848500Y-62915800D01*
X61112400Y-50215800D02*
X57759600Y-50215800D01*
X61810900Y-50914300D02*
X61112400Y-50215800D01*
X61810900Y-58953400D02*
X61810900Y-50914300D01*
X57848500Y-62915800D02*
X61810900Y-58953400D01*
G04 #@! TO.N,Net-(J3-Pad8)*
X60388500Y-72339200D02*
X60388500Y-64046100D01*
X63106300Y-47675800D02*
X57759600Y-47675800D01*
X64350900Y-48920400D02*
X63106300Y-47675800D01*
X64350900Y-60083700D02*
X64350900Y-48920400D01*
X60388500Y-64046100D02*
X64350900Y-60083700D01*
G04 #@! TO.N,Net-(J3-Pad9)*
X62928500Y-72339200D02*
X62928500Y-65049400D01*
X64236600Y-45135800D02*
X57759600Y-45135800D01*
X66890900Y-47790100D02*
X64236600Y-45135800D01*
X66890900Y-61087000D02*
X66890900Y-47790100D01*
X62928500Y-65049400D02*
X66890900Y-61087000D01*
G04 #@! TO.N,Net-(J1-Pad3)*
X61302900Y-37503100D02*
X57772300Y-37503100D01*
X57772300Y-37503100D02*
X57759600Y-37515800D01*
X65910800Y-37528500D02*
X63347600Y-37528500D01*
X63347600Y-37528500D02*
X63334900Y-37515800D01*
X57759600Y-37515800D02*
X63334900Y-37515800D01*
G04 #@! TO.N,Net-(J1-Pad4)*
X61302900Y-40043100D02*
X57772300Y-40043100D01*
X57772300Y-40043100D02*
X57759600Y-40055800D01*
X57759600Y-40055800D02*
X64058800Y-40055800D01*
X64058800Y-40055800D02*
X64071500Y-40068500D01*
X63334900Y-40055800D02*
X65910800Y-40055800D01*
X65910800Y-40055800D02*
X65923500Y-40043100D01*
D22*
G04 #@! TO.N,Net-(J5-Pad2)*
X43700000Y-26475000D02*
X43700000Y-29550000D01*
X43700000Y-29550000D02*
X43700000Y-29550000D01*
X37740000Y-37525000D02*
X37700000Y-37485000D01*
X44650000Y-37525000D02*
X37740000Y-37525000D01*
X50130400Y-37525000D02*
X50139600Y-37515800D01*
X44650000Y-37525000D02*
X50130400Y-37525000D01*
G04 #@! TO.N,Net-(J5-Pad3)*
X38902081Y-40025000D02*
X38927081Y-40050000D01*
X37700000Y-40025000D02*
X38902081Y-40025000D01*
X40825000Y-26525000D02*
X40825000Y-29550000D01*
X41750000Y-40025000D02*
X41775000Y-40050000D01*
X37700000Y-40025000D02*
X41750000Y-40025000D01*
X50133800Y-40050000D02*
X50139600Y-40055800D01*
X41775000Y-40050000D02*
X50133800Y-40050000D01*
G04 #@! TO.N,Net-(J5-Pad1)*
X46600000Y-26500000D02*
X46600000Y-29525000D01*
X46600800Y-34975800D02*
X46600000Y-34975000D01*
X50139600Y-34975800D02*
X46600800Y-34975800D01*
X37730000Y-34975000D02*
X37700000Y-34945000D01*
X46600000Y-34975000D02*
X37730000Y-34975000D01*
G04 #@! TD*
D23*
G04 #@! TO.N,GND*
G36*
X74623000Y-21226926D02*
X74623000Y-77273074D01*
X32277000Y-77297925D01*
X32277000Y-40381890D01*
X32408524Y-40381890D01*
X32578355Y-40791924D01*
X32968642Y-41220183D01*
X33493108Y-41466486D01*
X33723000Y-41345819D01*
X33723000Y-40152000D01*
X32529845Y-40152000D01*
X32408524Y-40381890D01*
X32277000Y-40381890D01*
X32277000Y-37841890D01*
X32408524Y-37841890D01*
X32578355Y-38251924D01*
X32968642Y-38680183D01*
X33127954Y-38755000D01*
X32968642Y-38829817D01*
X32578355Y-39258076D01*
X32408524Y-39668110D01*
X32529845Y-39898000D01*
X33723000Y-39898000D01*
X33723000Y-37612000D01*
X32529845Y-37612000D01*
X32408524Y-37841890D01*
X32277000Y-37841890D01*
X32277000Y-35230750D01*
X32365000Y-35230750D01*
X32365000Y-35921310D01*
X32461673Y-36154699D01*
X32640302Y-36333327D01*
X32849878Y-36420136D01*
X32578355Y-36718076D01*
X32408524Y-37128110D01*
X32529845Y-37358000D01*
X33723000Y-37358000D01*
X33723000Y-35072000D01*
X32523750Y-35072000D01*
X32365000Y-35230750D01*
X32277000Y-35230750D01*
X32277000Y-33968690D01*
X32365000Y-33968690D01*
X32365000Y-34659250D01*
X32523750Y-34818000D01*
X33723000Y-34818000D01*
X33723000Y-33618750D01*
X33977000Y-33618750D01*
X33977000Y-34818000D01*
X33997000Y-34818000D01*
X33997000Y-35072000D01*
X33977000Y-35072000D01*
X33977000Y-37358000D01*
X33997000Y-37358000D01*
X33997000Y-37612000D01*
X33977000Y-37612000D01*
X33977000Y-39898000D01*
X33997000Y-39898000D01*
X33997000Y-40152000D01*
X33977000Y-40152000D01*
X33977000Y-41345819D01*
X34206892Y-41466486D01*
X34731358Y-41220183D01*
X34869666Y-41068419D01*
X34873000Y-42325337D01*
X34882667Y-42373601D01*
X34910197Y-42414803D01*
X34951399Y-42442333D01*
X35000000Y-42452000D01*
X40125000Y-42452000D01*
X40173601Y-42442333D01*
X40214803Y-42414803D01*
X40242333Y-42373601D01*
X40252000Y-42325000D01*
X40252000Y-41660000D01*
X41488285Y-41660000D01*
X41613969Y-41685000D01*
X41613973Y-41685000D01*
X41774999Y-41717030D01*
X41936025Y-41685000D01*
X42500740Y-41685000D01*
X37044803Y-47140938D01*
X36899936Y-47237735D01*
X36803140Y-47382601D01*
X36516467Y-47811637D01*
X36381810Y-48488600D01*
X36415801Y-48659483D01*
X36415800Y-61424121D01*
X36381810Y-61595000D01*
X36415800Y-61765878D01*
X36415800Y-61765879D01*
X36516466Y-62271962D01*
X36899935Y-62845865D01*
X37044805Y-62942664D01*
X43413501Y-69311362D01*
X43413501Y-70098000D01*
X41625000Y-70098000D01*
X41576399Y-70107667D01*
X41535197Y-70135197D01*
X41507667Y-70176399D01*
X41498000Y-70225000D01*
X41498000Y-70909783D01*
X41398801Y-70950873D01*
X41220173Y-71129502D01*
X41123500Y-71362891D01*
X41123500Y-72053450D01*
X41282250Y-72212200D01*
X41498000Y-72212200D01*
X41498000Y-72466200D01*
X41282250Y-72466200D01*
X41123500Y-72624950D01*
X41123500Y-73315509D01*
X41220173Y-73548898D01*
X41398801Y-73727527D01*
X41498000Y-73768617D01*
X41498000Y-74400000D01*
X41507620Y-74448487D01*
X41535111Y-74489716D01*
X41576286Y-74517286D01*
X41624877Y-74527000D01*
X67499877Y-74552000D01*
X67548601Y-74542333D01*
X67589803Y-74514803D01*
X67617333Y-74473601D01*
X67627000Y-74425000D01*
X67627000Y-70225000D01*
X67617333Y-70176399D01*
X67589803Y-70135197D01*
X67548601Y-70107667D01*
X67500000Y-70098000D01*
X67203500Y-70098000D01*
X67203500Y-66975159D01*
X70805998Y-63372662D01*
X70950865Y-63275865D01*
X71334334Y-62701963D01*
X71435000Y-62195880D01*
X71435000Y-62195879D01*
X71468990Y-62025001D01*
X71435000Y-61854122D01*
X71435000Y-41140478D01*
X71468990Y-40969600D01*
X71433648Y-40791924D01*
X71334334Y-40292637D01*
X70950865Y-39718735D01*
X70805995Y-39621936D01*
X70508500Y-39324441D01*
X70508500Y-37712080D01*
X70542490Y-37541200D01*
X70495800Y-37306473D01*
X70495800Y-35560074D01*
X70529789Y-35389199D01*
X70495800Y-35218325D01*
X70495800Y-35218320D01*
X70395134Y-34712237D01*
X70011665Y-34138335D01*
X69866797Y-34041537D01*
X69707763Y-33882504D01*
X69610965Y-33737635D01*
X69037063Y-33354166D01*
X68530980Y-33253500D01*
X68530978Y-33253500D01*
X68360100Y-33219510D01*
X68189222Y-33253500D01*
X65556500Y-33253500D01*
X65556500Y-32734250D01*
X65397750Y-32575500D01*
X64198500Y-32575500D01*
X64198500Y-32595500D01*
X63944500Y-32595500D01*
X63944500Y-32575500D01*
X62745250Y-32575500D01*
X62699900Y-32620850D01*
X62629150Y-32550100D01*
X61429900Y-32550100D01*
X61429900Y-32570100D01*
X61175900Y-32570100D01*
X61175900Y-32550100D01*
X59976650Y-32550100D01*
X59817900Y-32708850D01*
X59817900Y-33240800D01*
X59534119Y-33240800D01*
X59532299Y-31446790D01*
X59817900Y-31446790D01*
X59817900Y-32137350D01*
X59976650Y-32296100D01*
X61175900Y-32296100D01*
X61175900Y-31096850D01*
X61429900Y-31096850D01*
X61429900Y-32296100D01*
X62629150Y-32296100D01*
X62674500Y-32250750D01*
X62745250Y-32321500D01*
X63944500Y-32321500D01*
X63944500Y-31122250D01*
X64198500Y-31122250D01*
X64198500Y-32321500D01*
X65397750Y-32321500D01*
X65556500Y-32162750D01*
X65556500Y-31472190D01*
X65459827Y-31238801D01*
X65281198Y-31060173D01*
X65047809Y-30963500D01*
X64357250Y-30963500D01*
X64198500Y-31122250D01*
X63944500Y-31122250D01*
X63785750Y-30963500D01*
X63095191Y-30963500D01*
X62861802Y-31060173D01*
X62696308Y-31225667D01*
X62691227Y-31213401D01*
X62512598Y-31034773D01*
X62279209Y-30938100D01*
X61588650Y-30938100D01*
X61429900Y-31096850D01*
X61175900Y-31096850D01*
X61017150Y-30938100D01*
X60326591Y-30938100D01*
X60093202Y-31034773D01*
X59914573Y-31213401D01*
X59817900Y-31446790D01*
X59532299Y-31446790D01*
X59527000Y-26224871D01*
X59517333Y-26176399D01*
X59489803Y-26135197D01*
X59448601Y-26107667D01*
X59400000Y-26098000D01*
X58360000Y-26098000D01*
X58360000Y-25795878D01*
X58393990Y-25624999D01*
X58351224Y-25410000D01*
X58259334Y-24948037D01*
X57875865Y-24374135D01*
X57730998Y-24277338D01*
X56047664Y-22594005D01*
X55950865Y-22449135D01*
X55376963Y-22065666D01*
X54870880Y-21965000D01*
X54870878Y-21965000D01*
X54700000Y-21931010D01*
X54529122Y-21965000D01*
X48618072Y-21965000D01*
X48615038Y-21960433D01*
X48573909Y-21932795D01*
X48525333Y-21923000D01*
X43722034Y-21910393D01*
X43700000Y-21906010D01*
X43678540Y-21910279D01*
X39000333Y-21898000D01*
X38950902Y-21907874D01*
X38909818Y-21935579D01*
X38882462Y-21976897D01*
X38873001Y-22025538D01*
X38898001Y-27925538D01*
X38898013Y-27926789D01*
X38948013Y-31476789D01*
X38957539Y-31523290D01*
X38984960Y-31564565D01*
X39026089Y-31592204D01*
X39074664Y-31602000D01*
X47597406Y-31624547D01*
X47595633Y-33340800D01*
X46765053Y-33340800D01*
X46761031Y-33340000D01*
X46761030Y-33340000D01*
X46600000Y-33307969D01*
X46438970Y-33340000D01*
X40252000Y-33340000D01*
X40252000Y-32900000D01*
X40242333Y-32851399D01*
X40214803Y-32810197D01*
X40173601Y-32782667D01*
X40125000Y-32773000D01*
X34975000Y-32773000D01*
X34926088Y-32782797D01*
X34884960Y-32810436D01*
X34857539Y-32851711D01*
X34848000Y-32900337D01*
X34849510Y-33469610D01*
X34826309Y-33460000D01*
X34135750Y-33460000D01*
X33977000Y-33618750D01*
X33723000Y-33618750D01*
X33564250Y-33460000D01*
X32873691Y-33460000D01*
X32640302Y-33556673D01*
X32461673Y-33735301D01*
X32365000Y-33968690D01*
X32277000Y-33968690D01*
X32277000Y-21202075D01*
X74623000Y-21226926D01*
X74623000Y-21226926D01*
G37*
X74623000Y-21226926D02*
X74623000Y-77273074D01*
X32277000Y-77297925D01*
X32277000Y-40381890D01*
X32408524Y-40381890D01*
X32578355Y-40791924D01*
X32968642Y-41220183D01*
X33493108Y-41466486D01*
X33723000Y-41345819D01*
X33723000Y-40152000D01*
X32529845Y-40152000D01*
X32408524Y-40381890D01*
X32277000Y-40381890D01*
X32277000Y-37841890D01*
X32408524Y-37841890D01*
X32578355Y-38251924D01*
X32968642Y-38680183D01*
X33127954Y-38755000D01*
X32968642Y-38829817D01*
X32578355Y-39258076D01*
X32408524Y-39668110D01*
X32529845Y-39898000D01*
X33723000Y-39898000D01*
X33723000Y-37612000D01*
X32529845Y-37612000D01*
X32408524Y-37841890D01*
X32277000Y-37841890D01*
X32277000Y-35230750D01*
X32365000Y-35230750D01*
X32365000Y-35921310D01*
X32461673Y-36154699D01*
X32640302Y-36333327D01*
X32849878Y-36420136D01*
X32578355Y-36718076D01*
X32408524Y-37128110D01*
X32529845Y-37358000D01*
X33723000Y-37358000D01*
X33723000Y-35072000D01*
X32523750Y-35072000D01*
X32365000Y-35230750D01*
X32277000Y-35230750D01*
X32277000Y-33968690D01*
X32365000Y-33968690D01*
X32365000Y-34659250D01*
X32523750Y-34818000D01*
X33723000Y-34818000D01*
X33723000Y-33618750D01*
X33977000Y-33618750D01*
X33977000Y-34818000D01*
X33997000Y-34818000D01*
X33997000Y-35072000D01*
X33977000Y-35072000D01*
X33977000Y-37358000D01*
X33997000Y-37358000D01*
X33997000Y-37612000D01*
X33977000Y-37612000D01*
X33977000Y-39898000D01*
X33997000Y-39898000D01*
X33997000Y-40152000D01*
X33977000Y-40152000D01*
X33977000Y-41345819D01*
X34206892Y-41466486D01*
X34731358Y-41220183D01*
X34869666Y-41068419D01*
X34873000Y-42325337D01*
X34882667Y-42373601D01*
X34910197Y-42414803D01*
X34951399Y-42442333D01*
X35000000Y-42452000D01*
X40125000Y-42452000D01*
X40173601Y-42442333D01*
X40214803Y-42414803D01*
X40242333Y-42373601D01*
X40252000Y-42325000D01*
X40252000Y-41660000D01*
X41488285Y-41660000D01*
X41613969Y-41685000D01*
X41613973Y-41685000D01*
X41774999Y-41717030D01*
X41936025Y-41685000D01*
X42500740Y-41685000D01*
X37044803Y-47140938D01*
X36899936Y-47237735D01*
X36803140Y-47382601D01*
X36516467Y-47811637D01*
X36381810Y-48488600D01*
X36415801Y-48659483D01*
X36415800Y-61424121D01*
X36381810Y-61595000D01*
X36415800Y-61765878D01*
X36415800Y-61765879D01*
X36516466Y-62271962D01*
X36899935Y-62845865D01*
X37044805Y-62942664D01*
X43413501Y-69311362D01*
X43413501Y-70098000D01*
X41625000Y-70098000D01*
X41576399Y-70107667D01*
X41535197Y-70135197D01*
X41507667Y-70176399D01*
X41498000Y-70225000D01*
X41498000Y-70909783D01*
X41398801Y-70950873D01*
X41220173Y-71129502D01*
X41123500Y-71362891D01*
X41123500Y-72053450D01*
X41282250Y-72212200D01*
X41498000Y-72212200D01*
X41498000Y-72466200D01*
X41282250Y-72466200D01*
X41123500Y-72624950D01*
X41123500Y-73315509D01*
X41220173Y-73548898D01*
X41398801Y-73727527D01*
X41498000Y-73768617D01*
X41498000Y-74400000D01*
X41507620Y-74448487D01*
X41535111Y-74489716D01*
X41576286Y-74517286D01*
X41624877Y-74527000D01*
X67499877Y-74552000D01*
X67548601Y-74542333D01*
X67589803Y-74514803D01*
X67617333Y-74473601D01*
X67627000Y-74425000D01*
X67627000Y-70225000D01*
X67617333Y-70176399D01*
X67589803Y-70135197D01*
X67548601Y-70107667D01*
X67500000Y-70098000D01*
X67203500Y-70098000D01*
X67203500Y-66975159D01*
X70805998Y-63372662D01*
X70950865Y-63275865D01*
X71334334Y-62701963D01*
X71435000Y-62195880D01*
X71435000Y-62195879D01*
X71468990Y-62025001D01*
X71435000Y-61854122D01*
X71435000Y-41140478D01*
X71468990Y-40969600D01*
X71433648Y-40791924D01*
X71334334Y-40292637D01*
X70950865Y-39718735D01*
X70805995Y-39621936D01*
X70508500Y-39324441D01*
X70508500Y-37712080D01*
X70542490Y-37541200D01*
X70495800Y-37306473D01*
X70495800Y-35560074D01*
X70529789Y-35389199D01*
X70495800Y-35218325D01*
X70495800Y-35218320D01*
X70395134Y-34712237D01*
X70011665Y-34138335D01*
X69866797Y-34041537D01*
X69707763Y-33882504D01*
X69610965Y-33737635D01*
X69037063Y-33354166D01*
X68530980Y-33253500D01*
X68530978Y-33253500D01*
X68360100Y-33219510D01*
X68189222Y-33253500D01*
X65556500Y-33253500D01*
X65556500Y-32734250D01*
X65397750Y-32575500D01*
X64198500Y-32575500D01*
X64198500Y-32595500D01*
X63944500Y-32595500D01*
X63944500Y-32575500D01*
X62745250Y-32575500D01*
X62699900Y-32620850D01*
X62629150Y-32550100D01*
X61429900Y-32550100D01*
X61429900Y-32570100D01*
X61175900Y-32570100D01*
X61175900Y-32550100D01*
X59976650Y-32550100D01*
X59817900Y-32708850D01*
X59817900Y-33240800D01*
X59534119Y-33240800D01*
X59532299Y-31446790D01*
X59817900Y-31446790D01*
X59817900Y-32137350D01*
X59976650Y-32296100D01*
X61175900Y-32296100D01*
X61175900Y-31096850D01*
X61429900Y-31096850D01*
X61429900Y-32296100D01*
X62629150Y-32296100D01*
X62674500Y-32250750D01*
X62745250Y-32321500D01*
X63944500Y-32321500D01*
X63944500Y-31122250D01*
X64198500Y-31122250D01*
X64198500Y-32321500D01*
X65397750Y-32321500D01*
X65556500Y-32162750D01*
X65556500Y-31472190D01*
X65459827Y-31238801D01*
X65281198Y-31060173D01*
X65047809Y-30963500D01*
X64357250Y-30963500D01*
X64198500Y-31122250D01*
X63944500Y-31122250D01*
X63785750Y-30963500D01*
X63095191Y-30963500D01*
X62861802Y-31060173D01*
X62696308Y-31225667D01*
X62691227Y-31213401D01*
X62512598Y-31034773D01*
X62279209Y-30938100D01*
X61588650Y-30938100D01*
X61429900Y-31096850D01*
X61175900Y-31096850D01*
X61017150Y-30938100D01*
X60326591Y-30938100D01*
X60093202Y-31034773D01*
X59914573Y-31213401D01*
X59817900Y-31446790D01*
X59532299Y-31446790D01*
X59527000Y-26224871D01*
X59517333Y-26176399D01*
X59489803Y-26135197D01*
X59448601Y-26107667D01*
X59400000Y-26098000D01*
X58360000Y-26098000D01*
X58360000Y-25795878D01*
X58393990Y-25624999D01*
X58351224Y-25410000D01*
X58259334Y-24948037D01*
X57875865Y-24374135D01*
X57730998Y-24277338D01*
X56047664Y-22594005D01*
X55950865Y-22449135D01*
X55376963Y-22065666D01*
X54870880Y-21965000D01*
X54870878Y-21965000D01*
X54700000Y-21931010D01*
X54529122Y-21965000D01*
X48618072Y-21965000D01*
X48615038Y-21960433D01*
X48573909Y-21932795D01*
X48525333Y-21923000D01*
X43722034Y-21910393D01*
X43700000Y-21906010D01*
X43678540Y-21910279D01*
X39000333Y-21898000D01*
X38950902Y-21907874D01*
X38909818Y-21935579D01*
X38882462Y-21976897D01*
X38873001Y-22025538D01*
X38898001Y-27925538D01*
X38898013Y-27926789D01*
X38948013Y-31476789D01*
X38957539Y-31523290D01*
X38984960Y-31564565D01*
X39026089Y-31592204D01*
X39074664Y-31602000D01*
X47597406Y-31624547D01*
X47595633Y-33340800D01*
X46765053Y-33340800D01*
X46761031Y-33340000D01*
X46761030Y-33340000D01*
X46600000Y-33307969D01*
X46438970Y-33340000D01*
X40252000Y-33340000D01*
X40252000Y-32900000D01*
X40242333Y-32851399D01*
X40214803Y-32810197D01*
X40173601Y-32782667D01*
X40125000Y-32773000D01*
X34975000Y-32773000D01*
X34926088Y-32782797D01*
X34884960Y-32810436D01*
X34857539Y-32851711D01*
X34848000Y-32900337D01*
X34849510Y-33469610D01*
X34826309Y-33460000D01*
X34135750Y-33460000D01*
X33977000Y-33618750D01*
X33723000Y-33618750D01*
X33564250Y-33460000D01*
X32873691Y-33460000D01*
X32640302Y-33556673D01*
X32461673Y-33735301D01*
X32365000Y-33968690D01*
X32277000Y-33968690D01*
X32277000Y-21202075D01*
X74623000Y-21226926D01*
G04 #@! TD*
M02*
