M48
;DRILL file {KiCad 5.0.0} date Sat Sep 29 21:29:20 2018
;FORMAT={-:-/ absolute / metric / decimal}
FMAT,2
METRIC,TZ
T1C0.400
T2C0.800
T3C1.000
%
G90
G05
M71
T1
X35.636Y-56.528
X40.825Y-29.55
X41.2Y-40.025
X43.7Y-29.55
X44.1Y-37.525
X46.6Y-29.525
X46.6Y-34.975
X50.114Y-56.54
T2
X50.14Y-34.976
X50.14Y-37.516
X50.14Y-40.056
X50.14Y-42.596
X50.14Y-45.136
X50.14Y-47.676
X50.14Y-50.216
X50.14Y-52.756
X57.76Y-34.976
X57.76Y-37.516
X57.76Y-40.056
X57.76Y-42.596
X57.76Y-45.136
X57.76Y-47.676
X57.76Y-50.216
X57.76Y-52.756
T3
X51.545Y-28.3
X54.085Y-28.3
X56.625Y-28.3
X61.303Y-32.423
X61.303Y-34.963
X61.303Y-37.503
X61.303Y-40.043
X33.85Y-34.945
X33.85Y-37.485
X33.85Y-40.025
X42.608Y-72.339
X45.148Y-72.339
X47.688Y-72.339
X50.228Y-72.339
X52.768Y-72.339
X55.308Y-72.339
X57.848Y-72.339
X60.389Y-72.339
X62.928Y-72.339
X65.468Y-72.339
X64.072Y-32.448
X64.072Y-34.989
X64.072Y-37.529
X64.072Y-40.069
X37.7Y-34.945
X37.7Y-37.485
X37.7Y-40.025
T0
M30
